999
"DXF R12 Output" (www.mydxf.blogspot.com)
 0 
SECTION
 2 
HEADER
 9 
$ACADVER
 1 
AC1009
 9 
$EXTMIN
 10 
 0 
 20 
 0 
 9 
$EXTMAX
 10 
 8.5 
 20 
 11 
 0 
ENDSEC
 0 
SECTION
 2 
ENTITIES
0
LINE
8
Layer 1
10
0.846666
20
317.647000
11
-0.846666
21
315.953000
0
LINE
8
Layer 1
10
0.000000
20
318.211000
11
0.000000
21
315.389000
0
LINE
8
Layer 1
10
2.257780
20
315.671000
11
1.128890
21
314.542110
0
LINE
8
Layer 1
10
1.693330
20
316.236000
11
0.564440
21
315.107110
0
LINE
8
Layer 1
10
1.128890
20
316.800000
11
0.000000
21
315.671110
0
LINE
8
0
10
360.801000
20
53.556600
11
372.067000
21
53.556600
0
LINE
8
0
10
360.801000
20
50.356500
11
360.801000
21
53.556600
0
LINE
8
0
10
360.801000
20
50.356500
11
351.200000
21
50.356500
0
LINE
8
0
10
351.200000
20
53.556600
11
351.200000
21
50.356500
0
LINE
8
0
10
311.223000
20
53.556600
11
351.200000
21
53.556600
0
LINE
8
0
10
311.223000
20
50.356500
11
311.223000
21
53.556600
0
LINE
8
0
10
311.223000
20
50.356500
11
301.622000
21
50.356500
0
LINE
8
0
10
301.622000
20
53.556600
11
301.622000
21
50.356500
0
LINE
8
0
10
261.645000
20
53.556600
11
301.622000
21
53.556600
0
LINE
8
0
10
261.645000
20
50.356500
11
261.645000
21
53.556600
0
LINE
8
0
10
261.645000
20
50.356500
11
252.045000
21
50.356500
0
LINE
8
0
10
252.045000
20
53.556600
11
252.045000
21
50.356500
0
LINE
8
0
10
212.067000
20
53.556600
11
252.045000
21
53.556600
0
LINE
8
0
10
212.067000
20
50.356500
11
212.067000
21
53.556600
0
LINE
8
0
10
212.067000
20
50.356500
11
202.467000
21
50.356500
0
LINE
8
0
10
202.467000
20
53.556600
11
202.467000
21
50.356500
0
LINE
8
0
10
162.489000
20
53.556600
11
202.467000
21
53.556600
0
LINE
8
0
10
162.489000
20
50.356500
11
162.489000
21
53.556600
0
LINE
8
0
10
162.489000
20
50.356500
11
152.889000
21
50.356500
0
LINE
8
0
10
152.889000
20
53.556600
11
152.889000
21
50.356500
0
LINE
8
0
10
112.911000
20
53.556600
11
152.889000
21
53.556600
0
LINE
8
0
10
112.911000
20
50.356500
11
112.911000
21
53.556600
0
LINE
8
0
10
112.911000
20
50.356500
11
103.312000
21
50.356500
0
LINE
8
0
10
103.312000
20
53.556600
11
103.312000
21
50.356500
0
LINE
8
0
10
63.333700
20
53.556600
11
103.312000
21
53.556600
0
LINE
8
0
10
63.333700
20
50.356500
11
63.333700
21
53.556600
0
LINE
8
0
10
63.333700
20
50.356500
11
53.733700
21
50.356500
0
LINE
8
0
10
53.733700
20
53.556600
11
53.733700
21
50.356500
0
LINE
8
0
10
42.467100
20
53.556600
11
53.733700
21
53.556600
0
LINE
8
0
10
42.467100
20
53.556600
11
42.467100
21
69.556600
0
LINE
8
0
10
42.467100
20
69.556600
11
39.267000
21
69.556600
0
LINE
8
0
10
39.267000
20
79.156400
11
39.267000
21
69.556600
0
LINE
8
0
10
39.267000
20
79.156400
11
42.467100
21
79.156400
0
LINE
8
0
10
42.467100
20
79.156400
11
42.467100
21
117.556000
0
LINE
8
0
10
42.467100
20
117.556000
11
39.267000
21
117.556000
0
LINE
8
0
10
39.267000
20
127.156000
11
39.267000
21
117.556000
0
LINE
8
0
10
39.267000
20
127.156000
11
42.467100
21
127.156000
0
LINE
8
0
10
42.467100
20
127.156000
11
42.467100
21
165.556000
0
LINE
8
0
10
42.467100
20
165.556000
11
39.267000
21
165.556000
0
LINE
8
0
10
39.267000
20
175.156000
11
39.267000
21
165.556000
0
LINE
8
0
10
39.267000
20
175.156000
11
42.467100
21
175.156000
0
LINE
8
0
10
42.467100
20
175.156000
11
42.467100
21
191.156000
0
LINE
8
0
10
42.467100
20
191.156000
11
53.733700
21
191.156000
0
LINE
8
0
10
53.733700
20
191.156000
11
53.733700
21
194.356000
0
LINE
8
0
10
63.333700
20
194.356000
11
53.733700
21
194.356000
0
LINE
8
0
10
63.333700
20
194.356000
11
63.333700
21
191.156000
0
LINE
8
0
10
63.333700
20
191.156000
11
103.312000
21
191.156000
0
LINE
8
0
10
103.312000
20
191.156000
11
103.312000
21
194.356000
0
LINE
8
0
10
112.911000
20
194.356000
11
103.312000
21
194.356000
0
LINE
8
0
10
112.911000
20
194.356000
11
112.911000
21
191.156000
0
LINE
8
0
10
112.911000
20
191.156000
11
152.889000
21
191.156000
0
LINE
8
0
10
152.889000
20
191.156000
11
152.889000
21
194.356000
0
LINE
8
0
10
162.489000
20
194.356000
11
152.889000
21
194.356000
0
LINE
8
0
10
162.489000
20
194.356000
11
162.489000
21
191.156000
0
LINE
8
0
10
162.489000
20
191.156000
11
202.467000
21
191.156000
0
LINE
8
0
10
202.467000
20
191.156000
11
202.467000
21
194.356000
0
LINE
8
0
10
212.067000
20
194.356000
11
202.467000
21
194.356000
0
LINE
8
0
10
212.067000
20
194.356000
11
212.067000
21
191.156000
0
LINE
8
0
10
212.067000
20
191.156000
11
252.045000
21
191.156000
0
LINE
8
0
10
252.045000
20
191.156000
11
252.045000
21
194.356000
0
LINE
8
0
10
261.645000
20
194.356000
11
252.045000
21
194.356000
0
LINE
8
0
10
261.645000
20
194.356000
11
261.645000
21
191.156000
0
LINE
8
0
10
261.645000
20
191.156000
11
301.622000
21
191.156000
0
LINE
8
0
10
301.622000
20
191.156000
11
301.622000
21
194.356000
0
LINE
8
0
10
311.223000
20
194.356000
11
301.622000
21
194.356000
0
LINE
8
0
10
311.223000
20
194.356000
11
311.223000
21
191.156000
0
LINE
8
0
10
311.223000
20
191.156000
11
351.200000
21
191.156000
0
LINE
8
0
10
351.200000
20
191.156000
11
351.200000
21
194.356000
0
LINE
8
0
10
360.801000
20
194.356000
11
351.200000
21
194.356000
0
LINE
8
0
10
360.801000
20
194.356000
11
360.801000
21
191.156000
0
LINE
8
0
10
360.801000
20
191.156000
11
372.067000
21
191.156000
0
LINE
8
0
10
372.067000
20
175.156000
11
372.067000
21
191.156000
0
LINE
8
0
10
375.268000
20
175.156000
11
372.067000
21
175.156000
0
LINE
8
0
10
372.067000
20
165.556000
11
375.268000
21
165.556000
0
LINE
8
0
10
372.067000
20
127.156000
11
372.067000
21
165.556000
0
LINE
8
0
10
375.268000
20
127.156000
11
372.067000
21
127.156000
0
LINE
8
0
10
372.067000
20
117.556000
11
375.268000
21
117.556000
0
LINE
8
0
10
372.067000
20
79.156400
11
372.067000
21
117.556000
0
LINE
8
0
10
375.268000
20
79.156400
11
372.067000
21
79.156400
0
LINE
8
0
10
372.067000
20
69.556600
11
375.268000
21
69.556600
0
LINE
8
0
10
372.067000
20
53.556600
11
372.067000
21
69.556600
0
LINE
8
0
10
375.268000
20
175.156000
11
375.268000
21
165.556000
0
LINE
8
0
10
375.268000
20
127.156000
11
375.268000
21
117.556000
0
LINE
8
0
10
375.268000
20
79.156400
11
375.268000
21
69.556600
0
LINE
8
0
10
359.604000
20
187.352000
11
370.871000
21
187.352000
0
LINE
8
0
10
359.604000
20
184.152000
11
359.604000
21
187.352000
0
LINE
8
0
10
359.604000
20
184.152000
11
350.006000
21
184.152000
0
LINE
8
0
10
350.006000
20
187.352000
11
350.006000
21
184.152000
0
LINE
8
0
10
310.027000
20
187.352000
11
350.006000
21
187.352000
0
LINE
8
0
10
310.027000
20
184.152000
11
310.027000
21
187.352000
0
LINE
8
0
10
310.027000
20
184.152000
11
300.428000
21
184.152000
0
LINE
8
0
10
300.428000
20
187.352000
11
300.428000
21
184.152000
0
LINE
8
0
10
260.449000
20
187.352000
11
300.428000
21
187.352000
0
LINE
8
0
10
260.449000
20
184.152000
11
260.449000
21
187.352000
0
LINE
8
0
10
260.449000
20
184.152000
11
250.849000
21
184.152000
0
LINE
8
0
10
250.849000
20
187.352000
11
250.849000
21
184.152000
0
LINE
8
0
10
210.871000
20
187.352000
11
250.849000
21
187.352000
0
LINE
8
0
10
210.871000
20
184.152000
11
210.871000
21
187.352000
0
LINE
8
0
10
210.871000
20
184.152000
11
201.271000
21
184.152000
0
LINE
8
0
10
201.271000
20
187.352000
11
201.271000
21
184.152000
0
LINE
8
0
10
161.294000
20
187.352000
11
201.271000
21
187.352000
0
LINE
8
0
10
161.294000
20
184.152000
11
161.294000
21
187.352000
0
LINE
8
0
10
161.294000
20
184.152000
11
151.694000
21
184.152000
0
LINE
8
0
10
151.694000
20
187.352000
11
151.694000
21
184.152000
0
LINE
8
0
10
111.716000
20
187.352000
11
151.694000
21
187.352000
0
LINE
8
0
10
111.716000
20
184.152000
11
111.716000
21
187.352000
0
LINE
8
0
10
111.716000
20
184.152000
11
102.116000
21
184.152000
0
LINE
8
0
10
102.116000
20
187.352000
11
102.116000
21
184.152000
0
LINE
8
0
10
62.138200
20
187.352000
11
102.116000
21
187.352000
0
LINE
8
0
10
62.138200
20
184.152000
11
62.138200
21
187.352000
0
LINE
8
0
10
62.138200
20
184.152000
11
52.538200
21
184.152000
0
LINE
8
0
10
52.538200
20
187.352000
11
52.538200
21
184.152000
0
LINE
8
0
10
41.271600
20
187.352000
11
52.538200
21
187.352000
0
LINE
8
0
10
41.271600
20
187.352000
11
41.271600
21
203.352000
0
LINE
8
0
10
41.271600
20
203.352000
11
38.071700
21
203.352000
0
LINE
8
0
10
38.071700
20
212.952000
11
38.071700
21
203.352000
0
LINE
8
0
10
38.071700
20
212.952000
11
41.271600
21
212.952000
0
LINE
8
0
10
41.271600
20
212.952000
11
41.271600
21
251.352000
0
LINE
8
0
10
41.271600
20
251.352000
11
38.071700
21
251.352000
0
LINE
8
0
10
38.071700
20
260.952000
11
38.071700
21
251.352000
0
LINE
8
0
10
38.071700
20
260.952000
11
41.271600
21
260.952000
0
LINE
8
0
10
41.271600
20
260.952000
11
41.271600
21
299.352000
0
LINE
8
0
10
41.271600
20
299.352000
11
38.071700
21
299.352000
0
LINE
8
0
10
38.071700
20
308.952000
11
38.071700
21
299.352000
0
LINE
8
0
10
38.071700
20
308.952000
11
41.271600
21
308.952000
0
LINE
8
0
10
41.271600
20
308.952000
11
41.271600
21
324.952000
0
LINE
8
0
10
41.271600
20
324.952000
11
52.538200
21
324.952000
0
LINE
8
0
10
52.538200
20
324.952000
11
52.538200
21
328.152000
0
LINE
8
0
10
62.138200
20
328.152000
11
52.538200
21
328.152000
0
LINE
8
0
10
62.138200
20
328.152000
11
62.138200
21
324.952000
0
LINE
8
0
10
62.138200
20
324.952000
11
102.116000
21
324.952000
0
LINE
8
0
10
102.116000
20
324.952000
11
102.116000
21
328.152000
0
LINE
8
0
10
111.716000
20
328.152000
11
102.116000
21
328.152000
0
LINE
8
0
10
111.716000
20
328.152000
11
111.716000
21
324.952000
0
LINE
8
0
10
111.716000
20
324.952000
11
151.694000
21
324.952000
0
LINE
8
0
10
151.694000
20
324.952000
11
151.694000
21
328.152000
0
LINE
8
0
10
161.294000
20
328.152000
11
151.694000
21
328.152000
0
LINE
8
0
10
161.294000
20
328.152000
11
161.294000
21
324.952000
0
LINE
8
0
10
161.294000
20
324.952000
11
201.271000
21
324.952000
0
LINE
8
0
10
201.271000
20
324.952000
11
201.271000
21
328.152000
0
LINE
8
0
10
210.871000
20
328.152000
11
201.271000
21
328.152000
0
LINE
8
0
10
210.871000
20
328.152000
11
210.871000
21
324.952000
0
LINE
8
0
10
210.871000
20
324.952000
11
250.849000
21
324.952000
0
LINE
8
0
10
250.849000
20
324.952000
11
250.849000
21
328.152000
0
LINE
8
0
10
260.449000
20
328.152000
11
250.849000
21
328.152000
0
LINE
8
0
10
260.449000
20
328.152000
11
260.449000
21
324.952000
0
LINE
8
0
10
260.449000
20
324.952000
11
300.428000
21
324.952000
0
LINE
8
0
10
300.428000
20
324.952000
11
300.428000
21
328.152000
0
LINE
8
0
10
310.027000
20
328.152000
11
300.428000
21
328.152000
0
LINE
8
0
10
310.027000
20
328.152000
11
310.027000
21
324.952000
0
LINE
8
0
10
310.027000
20
324.952000
11
350.006000
21
324.952000
0
LINE
8
0
10
350.006000
20
324.952000
11
350.006000
21
328.152000
0
LINE
8
0
10
359.604000
20
328.152000
11
350.006000
21
328.152000
0
LINE
8
0
10
359.604000
20
328.152000
11
359.604000
21
324.952000
0
LINE
8
0
10
359.604000
20
324.952000
11
370.871000
21
324.952000
0
LINE
8
0
10
370.871000
20
308.952000
11
370.871000
21
324.952000
0
LINE
8
0
10
374.071000
20
308.952000
11
370.871000
21
308.952000
0
LINE
8
0
10
370.871000
20
299.352000
11
374.071000
21
299.352000
0
LINE
8
0
10
370.871000
20
260.952000
11
370.871000
21
299.352000
0
LINE
8
0
10
374.071000
20
260.952000
11
370.871000
21
260.952000
0
LINE
8
0
10
370.871000
20
251.352000
11
374.071000
21
251.352000
0
LINE
8
0
10
370.871000
20
212.952000
11
370.871000
21
251.352000
0
LINE
8
0
10
374.071000
20
212.952000
11
370.871000
21
212.952000
0
LINE
8
0
10
370.871000
20
203.352000
11
374.071000
21
203.352000
0
LINE
8
0
10
370.871000
20
187.352000
11
370.871000
21
203.352000
0
LINE
8
0
10
374.071000
20
308.952000
11
374.071000
21
299.352000
0
LINE
8
0
10
374.071000
20
260.952000
11
374.071000
21
251.352000
0
LINE
8
0
10
374.071000
20
212.952000
11
374.071000
21
203.352000
0
LINE
8
0
10
179.089000
20
343.094000
11
179.089000
21
347.360000
0
LINE
8
0
10
63.889100
20
337.760000
11
63.889100
21
340.960000
0
LINE
8
0
10
175.889000
20
334.560000
11
175.889000
21
343.094000
0
LINE
8
0
10
35.088900
20
347.360000
11
35.088900
21
343.094000
0
LINE
8
0
10
38.289100
20
334.560000
11
38.289100
21
343.094000
0
LINE
8
0
10
38.289100
20
334.560000
11
175.889000
21
334.560000
0
LINE
8
0
10
38.289100
20
343.094000
11
35.088900
21
343.094000
0
LINE
8
0
10
175.889000
20
343.094000
11
179.089000
21
343.094000
0
LINE
8
0
10
35.088900
20
347.360000
11
179.089000
21
347.360000
0
LINE
8
0
10
102.289000
20
337.760000
11
102.289000
21
340.960000
0
LINE
8
0
10
111.889000
20
337.760000
11
102.289000
21
337.760000
0
LINE
8
0
10
54.289100
20
337.760000
11
54.289100
21
340.960000
0
LINE
8
0
10
159.889000
20
337.760000
11
159.889000
21
340.960000
0
LINE
8
0
10
159.889000
20
340.960000
11
150.289000
21
340.960000
0
LINE
8
0
10
111.889000
20
340.960000
11
102.289000
21
340.960000
0
LINE
8
0
10
111.889000
20
337.760000
11
111.889000
21
340.960000
0
LINE
8
0
10
63.889100
20
337.760000
11
54.289100
21
337.760000
0
LINE
8
0
10
63.889100
20
340.960000
11
54.289100
21
340.960000
0
LINE
8
0
10
159.889000
20
337.760000
11
150.289000
21
337.760000
0
LINE
8
0
10
150.289000
20
337.760000
11
150.289000
21
340.960000
0
LINE
8
0
10
128.956000
20
370.827000
11
132.156000
21
370.827000
0
LINE
8
0
10
102.289000
20
370.827000
11
102.289000
21
374.027000
0
LINE
8
0
10
63.889100
20
370.827000
11
63.889100
21
374.027000
0
LINE
8
0
10
35.088900
20
351.627000
11
38.289100
21
351.627000
0
LINE
8
0
10
38.289100
20
351.627000
11
38.289100
21
360.160000
0
LINE
8
0
10
38.289100
20
368.694000
11
38.289100
21
377.227000
0
LINE
8
0
10
175.889000
20
368.694000
11
175.889000
21
377.227000
0
LINE
8
0
10
179.089000
20
368.694000
11
175.889000
21
368.694000
0
LINE
8
0
10
179.089000
20
351.627000
11
175.889000
21
351.627000
0
LINE
8
0
10
179.089000
20
347.360000
11
179.089000
21
351.627000
0
LINE
8
0
10
35.088900
20
368.694000
11
35.088900
21
360.160000
0
LINE
8
0
10
35.088900
20
351.627000
11
35.088900
21
347.360000
0
LINE
8
0
10
175.889000
20
377.227000
11
38.289100
21
377.227000
0
LINE
8
0
10
179.089000
20
360.160000
11
179.089000
21
368.694000
0
LINE
8
0
10
38.289100
20
360.160000
11
35.088900
21
360.160000
0
LINE
8
0
10
175.889000
20
351.627000
11
175.889000
21
360.160000
0
LINE
8
0
10
35.088900
20
368.694000
11
38.289100
21
368.694000
0
LINE
8
0
10
179.089000
20
347.360000
11
132.156000
21
347.360000
0
LINE
8
0
10
175.889000
20
360.160000
11
179.089000
21
360.160000
0
LINE
8
0
10
82.022500
20
347.360000
11
35.088900
21
347.360000
0
LINE
8
0
10
111.889000
20
370.827000
11
111.889000
21
374.027000
0
LINE
8
0
10
63.889100
20
370.827000
11
54.289100
21
370.827000
0
LINE
8
0
10
159.889000
20
374.027000
11
150.289000
21
374.027000
0
LINE
8
0
10
128.956000
20
347.360000
11
85.222300
21
347.360000
0
LINE
8
0
10
63.889100
20
374.027000
11
54.289100
21
374.027000
0
LINE
8
0
10
159.889000
20
370.827000
11
150.289000
21
370.827000
0
LINE
8
0
10
159.889000
20
370.827000
11
159.889000
21
374.027000
0
LINE
8
0
10
111.889000
20
374.027000
11
102.289000
21
374.027000
0
LINE
8
0
10
111.889000
20
370.827000
11
102.289000
21
370.827000
0
LINE
8
0
10
54.289100
20
370.827000
11
54.289100
21
374.027000
0
LINE
8
0
10
82.022500
20
370.827000
11
85.222300
21
370.827000
0
LINE
8
0
10
132.156000
20
350.560000
11
128.956000
21
350.560000
0
LINE
8
0
10
128.956000
20
347.360000
11
128.956000
21
350.560000
0
LINE
8
0
10
128.956000
20
367.627000
11
128.956000
21
370.827000
0
LINE
8
0
10
132.156000
20
347.360000
11
132.156000
21
350.560000
0
LINE
8
0
10
132.156000
20
367.627000
11
128.956000
21
367.627000
0
LINE
8
0
10
132.156000
20
367.627000
11
132.156000
21
370.827000
0
LINE
8
0
10
82.022500
20
347.360000
11
82.022500
21
350.560000
0
LINE
8
0
10
85.222300
20
347.360000
11
85.222300
21
350.560000
0
LINE
8
0
10
85.222300
20
350.560000
11
82.022500
21
350.560000
0
LINE
8
0
10
82.022500
20
367.627000
11
82.022500
21
370.827000
0
LINE
8
0
10
85.222300
20
367.627000
11
82.022500
21
367.627000
0
LINE
8
0
10
85.222300
20
367.627000
11
85.222300
21
370.827000
0
LINE
8
0
10
150.289000
20
370.827000
11
150.289000
21
374.027000
0
LINE
8
0
10
330.928000
20
344.037000
11
330.928000
21
348.304000
0
LINE
8
0
10
215.729000
20
338.704000
11
215.729000
21
341.904000
0
LINE
8
0
10
327.730000
20
335.504000
11
327.730000
21
344.037000
0
LINE
8
0
10
186.929000
20
348.304000
11
186.929000
21
344.037000
0
LINE
8
0
10
190.129000
20
335.504000
11
190.129000
21
344.037000
0
LINE
8
0
10
190.129000
20
335.504000
11
327.730000
21
335.504000
0
LINE
8
0
10
190.129000
20
344.037000
11
186.929000
21
344.037000
0
LINE
8
0
10
327.730000
20
344.037000
11
330.928000
21
344.037000
0
LINE
8
0
10
186.929000
20
348.304000
11
330.928000
21
348.304000
0
LINE
8
0
10
254.129000
20
338.704000
11
254.129000
21
341.904000
0
LINE
8
0
10
263.729000
20
338.704000
11
254.129000
21
338.704000
0
LINE
8
0
10
206.129000
20
338.704000
11
206.129000
21
341.904000
0
LINE
8
0
10
311.728000
20
338.704000
11
311.728000
21
341.904000
0
LINE
8
0
10
311.728000
20
341.904000
11
302.130000
21
341.904000
0
LINE
8
0
10
263.729000
20
341.904000
11
254.129000
21
341.904000
0
LINE
8
0
10
263.729000
20
338.704000
11
263.729000
21
341.904000
0
LINE
8
0
10
215.729000
20
338.704000
11
206.129000
21
338.704000
0
LINE
8
0
10
215.729000
20
341.904000
11
206.129000
21
341.904000
0
LINE
8
0
10
311.728000
20
338.704000
11
302.130000
21
338.704000
0
LINE
8
0
10
302.130000
20
338.704000
11
302.130000
21
341.904000
0
LINE
8
0
10
280.796000
20
371.771000
11
283.994000
21
371.771000
0
LINE
8
0
10
254.129000
20
371.771000
11
254.129000
21
374.971000
0
LINE
8
0
10
215.729000
20
371.771000
11
215.729000
21
374.971000
0
LINE
8
0
10
186.929000
20
352.571000
11
190.129000
21
352.571000
0
LINE
8
0
10
190.129000
20
352.571000
11
190.129000
21
361.104000
0
LINE
8
0
10
190.129000
20
369.637000
11
190.129000
21
378.171000
0
LINE
8
0
10
327.730000
20
369.637000
11
327.730000
21
378.171000
0
LINE
8
0
10
330.928000
20
369.637000
11
327.730000
21
369.637000
0
LINE
8
0
10
330.928000
20
352.571000
11
327.730000
21
352.571000
0
LINE
8
0
10
330.928000
20
348.304000
11
330.928000
21
352.571000
0
LINE
8
0
10
186.929000
20
369.637000
11
186.929000
21
361.104000
0
LINE
8
0
10
186.929000
20
352.571000
11
186.929000
21
348.304000
0
LINE
8
0
10
327.730000
20
378.171000
11
190.129000
21
378.171000
0
LINE
8
0
10
330.928000
20
361.104000
11
330.928000
21
369.637000
0
LINE
8
0
10
190.129000
20
361.104000
11
186.929000
21
361.104000
0
LINE
8
0
10
327.730000
20
352.571000
11
327.730000
21
361.104000
0
LINE
8
0
10
186.929000
20
369.637000
11
190.129000
21
369.637000
0
LINE
8
0
10
330.928000
20
348.304000
11
283.994000
21
348.304000
0
LINE
8
0
10
327.730000
20
361.104000
11
330.928000
21
361.104000
0
LINE
8
0
10
233.862000
20
348.304000
11
186.929000
21
348.304000
0
LINE
8
0
10
263.729000
20
371.771000
11
263.729000
21
374.971000
0
LINE
8
0
10
215.729000
20
371.771000
11
206.129000
21
371.771000
0
LINE
8
0
10
311.728000
20
374.971000
11
302.130000
21
374.971000
0
LINE
8
0
10
280.796000
20
348.304000
11
237.063000
21
348.304000
0
LINE
8
0
10
215.729000
20
374.971000
11
206.129000
21
374.971000
0
LINE
8
0
10
311.728000
20
371.771000
11
302.130000
21
371.771000
0
LINE
8
0
10
311.728000
20
371.771000
11
311.728000
21
374.971000
0
LINE
8
0
10
263.729000
20
374.971000
11
254.129000
21
374.971000
0
LINE
8
0
10
263.729000
20
371.771000
11
254.129000
21
371.771000
0
LINE
8
0
10
206.129000
20
371.771000
11
206.129000
21
374.971000
0
LINE
8
0
10
233.862000
20
371.771000
11
237.063000
21
371.771000
0
LINE
8
0
10
283.994000
20
351.504000
11
280.796000
21
351.504000
0
LINE
8
0
10
280.796000
20
348.304000
11
280.796000
21
351.504000
0
LINE
8
0
10
280.796000
20
368.571000
11
280.796000
21
371.771000
0
LINE
8
0
10
283.994000
20
348.304000
11
283.994000
21
351.504000
0
LINE
8
0
10
283.994000
20
368.571000
11
280.796000
21
368.571000
0
LINE
8
0
10
283.994000
20
368.571000
11
283.994000
21
371.771000
0
LINE
8
0
10
233.862000
20
348.304000
11
233.862000
21
351.504000
0
LINE
8
0
10
237.063000
20
348.304000
11
237.063000
21
351.504000
0
LINE
8
0
10
237.063000
20
351.504000
11
233.862000
21
351.504000
0
LINE
8
0
10
233.862000
20
368.571000
11
233.862000
21
371.771000
0
LINE
8
0
10
237.063000
20
368.571000
11
233.862000
21
368.571000
0
LINE
8
0
10
237.063000
20
368.571000
11
237.063000
21
371.771000
0
LINE
8
0
10
302.130000
20
371.771000
11
302.130000
21
374.971000
0
LINE
8
0
10
32.508300
20
383.383000
11
32.508300
21
391.917000
0
LINE
8
0
10
368.509000
20
383.383000
11
32.508300
21
383.383000
0
LINE
8
0
10
368.509000
20
383.383000
11
368.509000
21
391.917000
0
LINE
8
0
10
46.975000
20
386.583000
11
46.975000
21
389.783000
0
LINE
8
0
10
365.308000
20
396.183000
11
365.308000
21
391.917000
0
LINE
8
0
10
35.708400
20
396.183000
11
35.708400
21
391.917000
0
LINE
8
0
10
365.308000
20
391.917000
11
368.509000
21
391.917000
0
LINE
8
0
10
35.708400
20
396.183000
11
365.308000
21
396.183000
0
LINE
8
0
10
32.508300
20
391.917000
11
35.708400
21
391.917000
0
LINE
8
0
10
254.886000
20
389.783000
11
245.286000
21
389.783000
0
LINE
8
0
10
106.153000
20
386.583000
11
106.153000
21
389.783000
0
LINE
8
0
10
354.042000
20
389.783000
11
344.441000
21
389.783000
0
LINE
8
0
10
354.042000
20
386.583000
11
354.042000
21
389.783000
0
LINE
8
0
10
106.153000
20
389.783000
11
96.552700
21
389.783000
0
LINE
8
0
10
245.286000
20
386.583000
11
245.286000
21
389.783000
0
LINE
8
0
10
56.575100
20
386.583000
11
56.575100
21
389.783000
0
LINE
8
0
10
304.464000
20
386.583000
11
304.464000
21
389.783000
0
LINE
8
0
10
304.464000
20
389.783000
11
294.863000
21
389.783000
0
LINE
8
0
10
56.575100
20
389.783000
11
46.975000
21
389.783000
0
LINE
8
0
10
106.153000
20
386.583000
11
96.552700
21
386.583000
0
LINE
8
0
10
155.730000
20
386.583000
11
146.130000
21
386.583000
0
LINE
8
0
10
155.730000
20
386.583000
11
155.730000
21
389.783000
0
LINE
8
0
10
155.730000
20
389.783000
11
146.130000
21
389.783000
0
LINE
8
0
10
304.464000
20
386.583000
11
294.863000
21
386.583000
0
LINE
8
0
10
205.308000
20
386.583000
11
195.708000
21
386.583000
0
LINE
8
0
10
205.308000
20
386.583000
11
205.308000
21
389.783000
0
LINE
8
0
10
96.552700
20
386.583000
11
96.552700
21
389.783000
0
LINE
8
0
10
146.130000
20
386.583000
11
146.130000
21
389.783000
0
LINE
8
0
10
56.575100
20
386.583000
11
46.975000
21
386.583000
0
LINE
8
0
10
254.886000
20
386.583000
11
254.886000
21
389.783000
0
LINE
8
0
10
205.308000
20
389.783000
11
195.708000
21
389.783000
0
LINE
8
0
10
344.441000
20
386.583000
11
344.441000
21
389.783000
0
LINE
8
0
10
354.042000
20
386.583000
11
344.441000
21
386.583000
0
LINE
8
0
10
294.863000
20
386.583000
11
294.863000
21
389.783000
0
LINE
8
0
10
254.886000
20
386.583000
11
245.286000
21
386.583000
0
LINE
8
0
10
195.708000
20
386.583000
11
195.708000
21
389.783000
0
LINE
8
0
10
80.051100
20
419.650000
11
83.251300
21
419.650000
0
LINE
8
0
10
80.051100
20
416.450000
11
80.051100
21
419.650000
0
LINE
8
0
10
83.251300
20
416.450000
11
80.051100
21
416.450000
0
LINE
8
0
10
83.251300
20
416.450000
11
83.251300
21
419.650000
0
LINE
8
0
10
46.975000
20
419.650000
11
46.975000
21
422.850000
0
LINE
8
0
10
368.509000
20
400.450000
11
368.509000
21
408.983000
0
LINE
8
0
10
83.251300
20
396.183000
11
83.251300
21
399.383000
0
LINE
8
0
10
83.251300
20
399.383000
11
80.051100
21
399.383000
0
LINE
8
0
10
80.051100
20
396.183000
11
80.051100
21
399.383000
0
LINE
8
0
10
32.508300
20
417.517000
11
32.508300
21
426.050000
0
LINE
8
0
10
368.509000
20
426.050000
11
32.508300
21
426.050000
0
LINE
8
0
10
368.509000
20
417.517000
11
368.509000
21
426.050000
0
LINE
8
0
10
32.508300
20
400.450000
11
32.508300
21
408.983000
0
LINE
8
0
10
365.308000
20
400.450000
11
368.509000
21
400.450000
0
LINE
8
0
10
35.708400
20
396.183000
11
80.051100
21
396.183000
0
LINE
8
0
10
195.708000
20
419.650000
11
195.708000
21
422.850000
0
LINE
8
0
10
205.308000
20
422.850000
11
195.708000
21
422.850000
0
LINE
8
0
10
354.042000
20
419.650000
11
344.441000
21
419.650000
0
LINE
8
0
10
32.508300
20
408.983000
11
35.708400
21
408.983000
0
LINE
8
0
10
205.308000
20
419.650000
11
205.308000
21
422.850000
0
LINE
8
0
10
344.441000
20
419.650000
11
344.441000
21
422.850000
0
LINE
8
0
10
365.308000
20
400.450000
11
365.308000
21
396.183000
0
LINE
8
0
10
35.708400
20
400.450000
11
35.708400
21
396.183000
0
LINE
8
0
10
35.708400
20
417.517000
11
35.708400
21
408.983000
0
LINE
8
0
10
32.508300
20
417.517000
11
35.708400
21
417.517000
0
LINE
8
0
10
245.286000
20
419.650000
11
245.286000
21
422.850000
0
LINE
8
0
10
365.308000
20
408.983000
11
368.509000
21
408.983000
0
LINE
8
0
10
205.308000
20
419.650000
11
195.708000
21
419.650000
0
LINE
8
0
10
56.575100
20
419.650000
11
46.975000
21
419.650000
0
LINE
8
0
10
56.575100
20
419.650000
11
56.575100
21
422.850000
0
LINE
8
0
10
56.575100
20
422.850000
11
46.975000
21
422.850000
0
LINE
8
0
10
304.464000
20
419.650000
11
294.863000
21
419.650000
0
LINE
8
0
10
304.464000
20
419.650000
11
304.464000
21
422.850000
0
LINE
8
0
10
32.508300
20
400.450000
11
35.708400
21
400.450000
0
LINE
8
0
10
304.464000
20
422.850000
11
294.863000
21
422.850000
0
LINE
8
0
10
155.730000
20
419.650000
11
146.130000
21
419.650000
0
LINE
8
0
10
155.730000
20
419.650000
11
155.730000
21
422.850000
0
LINE
8
0
10
155.730000
20
422.850000
11
146.130000
21
422.850000
0
LINE
8
0
10
146.130000
20
419.650000
11
146.130000
21
422.850000
0
LINE
8
0
10
106.153000
20
419.650000
11
106.153000
21
422.850000
0
LINE
8
0
10
106.153000
20
422.850000
11
96.552700
21
422.850000
0
LINE
8
0
10
96.552700
20
419.650000
11
96.552700
21
422.850000
0
LINE
8
0
10
354.042000
20
419.650000
11
354.042000
21
422.850000
0
LINE
8
0
10
354.042000
20
422.850000
11
344.441000
21
422.850000
0
LINE
8
0
10
365.308000
20
417.517000
11
368.509000
21
417.517000
0
LINE
8
0
10
106.153000
20
419.650000
11
96.552700
21
419.650000
0
LINE
8
0
10
294.863000
20
419.650000
11
294.863000
21
422.850000
0
LINE
8
0
10
254.886000
20
422.850000
11
245.286000
21
422.850000
0
LINE
8
0
10
365.308000
20
417.517000
11
365.308000
21
408.983000
0
LINE
8
0
10
254.886000
20
419.650000
11
254.886000
21
422.850000
0
LINE
8
0
10
254.886000
20
419.650000
11
245.286000
21
419.650000
0
LINE
8
0
10
130.794000
20
399.383000
11
127.594000
21
399.383000
0
LINE
8
0
10
127.594000
20
416.450000
11
127.594000
21
419.650000
0
LINE
8
0
10
130.794000
20
416.450000
11
127.594000
21
416.450000
0
LINE
8
0
10
130.794000
20
396.183000
11
130.794000
21
399.383000
0
LINE
8
0
10
127.594000
20
419.650000
11
130.794000
21
419.650000
0
LINE
8
0
10
130.794000
20
416.450000
11
130.794000
21
419.650000
0
LINE
8
0
10
83.251300
20
396.183000
11
127.594000
21
396.183000
0
LINE
8
0
10
127.594000
20
396.183000
11
127.594000
21
399.383000
0
LINE
8
0
10
178.337000
20
416.450000
11
178.337000
21
419.650000
0
LINE
8
0
10
175.137000
20
419.650000
11
178.337000
21
419.650000
0
LINE
8
0
10
175.137000
20
416.450000
11
175.137000
21
419.650000
0
LINE
8
0
10
178.337000
20
396.183000
11
178.337000
21
399.383000
0
LINE
8
0
10
178.337000
20
416.450000
11
175.137000
21
416.450000
0
LINE
8
0
10
178.337000
20
399.383000
11
175.137000
21
399.383000
0
LINE
8
0
10
175.137000
20
396.183000
11
175.137000
21
399.383000
0
LINE
8
0
10
130.794000
20
396.183000
11
175.137000
21
396.183000
0
LINE
8
0
10
320.965000
20
396.183000
11
365.308000
21
396.183000
0
LINE
8
0
10
320.965000
20
396.183000
11
320.965000
21
399.383000
0
LINE
8
0
10
320.965000
20
416.450000
11
317.765000
21
416.450000
0
LINE
8
0
10
317.765000
20
419.650000
11
320.965000
21
419.650000
0
LINE
8
0
10
320.965000
20
399.383000
11
317.765000
21
399.383000
0
LINE
8
0
10
317.765000
20
416.450000
11
317.765000
21
419.650000
0
LINE
8
0
10
317.765000
20
396.183000
11
317.765000
21
399.383000
0
LINE
8
0
10
320.965000
20
416.450000
11
320.965000
21
419.650000
0
LINE
8
0
10
222.680000
20
396.183000
11
222.680000
21
399.383000
0
LINE
8
0
10
178.337000
20
396.183000
11
222.680000
21
396.183000
0
LINE
8
0
10
225.879000
20
416.450000
11
222.680000
21
416.450000
0
LINE
8
0
10
225.879000
20
396.183000
11
225.879000
21
399.383000
0
LINE
8
0
10
225.879000
20
399.383000
11
222.680000
21
399.383000
0
LINE
8
0
10
222.680000
20
416.450000
11
222.680000
21
419.650000
0
LINE
8
0
10
222.680000
20
419.650000
11
225.879000
21
419.650000
0
LINE
8
0
10
225.879000
20
416.450000
11
225.879000
21
419.650000
0
LINE
8
0
10
273.422000
20
396.183000
11
317.765000
21
396.183000
0
LINE
8
0
10
225.879000
20
396.183000
11
270.222000
21
396.183000
0
LINE
8
0
10
270.222000
20
396.183000
11
270.222000
21
399.383000
0
LINE
8
0
10
273.422000
20
396.183000
11
273.422000
21
399.383000
0
LINE
8
0
10
273.422000
20
416.450000
11
273.422000
21
419.650000
0
LINE
8
0
10
273.422000
20
416.450000
11
270.222000
21
416.450000
0
LINE
8
0
10
273.422000
20
399.383000
11
270.222000
21
399.383000
0
LINE
8
0
10
270.222000
20
419.650000
11
273.422000
21
419.650000
0
LINE
8
0
10
270.222000
20
416.450000
11
270.222000
21
419.650000
0
LINE
8
0
10
33.599700
20
430.402000
11
33.599700
21
438.935000
0
LINE
8
0
10
369.598000
20
430.402000
11
33.599700
21
430.402000
0
LINE
8
0
10
369.598000
20
430.402000
11
369.598000
21
438.935000
0
LINE
8
0
10
48.066400
20
433.602000
11
48.066400
21
436.802000
0
LINE
8
0
10
366.400000
20
443.202000
11
366.400000
21
438.935000
0
LINE
8
0
10
36.799500
20
443.202000
11
36.799500
21
438.935000
0
LINE
8
0
10
366.400000
20
438.935000
11
369.598000
21
438.935000
0
LINE
8
0
10
36.799500
20
443.202000
11
366.400000
21
443.202000
0
LINE
8
0
10
33.599700
20
438.935000
11
36.799500
21
438.935000
0
LINE
8
0
10
255.977000
20
436.802000
11
246.377000
21
436.802000
0
LINE
8
0
10
107.244000
20
433.602000
11
107.244000
21
436.802000
0
LINE
8
0
10
355.134000
20
436.802000
11
345.533000
21
436.802000
0
LINE
8
0
10
355.134000
20
433.602000
11
355.134000
21
436.802000
0
LINE
8
0
10
107.244000
20
436.802000
11
97.644000
21
436.802000
0
LINE
8
0
10
246.377000
20
433.602000
11
246.377000
21
436.802000
0
LINE
8
0
10
57.666100
20
433.602000
11
57.666100
21
436.802000
0
LINE
8
0
10
305.556000
20
433.602000
11
305.556000
21
436.802000
0
LINE
8
0
10
305.556000
20
436.802000
11
295.955000
21
436.802000
0
LINE
8
0
10
57.666100
20
436.802000
11
48.066400
21
436.802000
0
LINE
8
0
10
107.244000
20
433.602000
11
97.644000
21
433.602000
0
LINE
8
0
10
156.822000
20
433.602000
11
147.222000
21
433.602000
0
LINE
8
0
10
156.822000
20
433.602000
11
156.822000
21
436.802000
0
LINE
8
0
10
156.822000
20
436.802000
11
147.222000
21
436.802000
0
LINE
8
0
10
305.556000
20
433.602000
11
295.955000
21
433.602000
0
LINE
8
0
10
206.399000
20
433.602000
11
196.799000
21
433.602000
0
LINE
8
0
10
206.399000
20
433.602000
11
206.399000
21
436.802000
0
LINE
8
0
10
97.644000
20
433.602000
11
97.644000
21
436.802000
0
LINE
8
0
10
147.222000
20
433.602000
11
147.222000
21
436.802000
0
LINE
8
0
10
57.666100
20
433.602000
11
48.066400
21
433.602000
0
LINE
8
0
10
255.977000
20
433.602000
11
255.977000
21
436.802000
0
LINE
8
0
10
206.399000
20
436.802000
11
196.799000
21
436.802000
0
LINE
8
0
10
345.533000
20
433.602000
11
345.533000
21
436.802000
0
LINE
8
0
10
355.134000
20
433.602000
11
345.533000
21
433.602000
0
LINE
8
0
10
295.955000
20
433.602000
11
295.955000
21
436.802000
0
LINE
8
0
10
255.977000
20
433.602000
11
246.377000
21
433.602000
0
LINE
8
0
10
196.799000
20
433.602000
11
196.799000
21
436.802000
0
LINE
8
0
10
81.142500
20
466.668000
11
84.342300
21
466.668000
0
LINE
8
0
10
81.142500
20
463.468000
11
81.142500
21
466.668000
0
LINE
8
0
10
84.342300
20
463.468000
11
81.142500
21
463.468000
0
LINE
8
0
10
84.342300
20
463.468000
11
84.342300
21
466.668000
0
LINE
8
0
10
48.066400
20
466.668000
11
48.066400
21
469.868000
0
LINE
8
0
10
369.598000
20
447.468000
11
369.598000
21
456.001000
0
LINE
8
0
10
84.342300
20
443.202000
11
84.342300
21
446.402000
0
LINE
8
0
10
84.342300
20
446.402000
11
81.142500
21
446.402000
0
LINE
8
0
10
81.142500
20
443.202000
11
81.142500
21
446.402000
0
LINE
8
0
10
33.599700
20
464.535000
11
33.599700
21
473.068000
0
LINE
8
0
10
369.598000
20
473.068000
11
33.599700
21
473.068000
0
LINE
8
0
10
369.598000
20
464.535000
11
369.598000
21
473.068000
0
LINE
8
0
10
33.599700
20
447.468000
11
33.599700
21
456.001000
0
LINE
8
0
10
366.400000
20
447.468000
11
369.598000
21
447.468000
0
LINE
8
0
10
36.799500
20
443.202000
11
81.142500
21
443.202000
0
LINE
8
0
10
196.799000
20
466.668000
11
196.799000
21
469.868000
0
LINE
8
0
10
206.399000
20
469.868000
11
196.799000
21
469.868000
0
LINE
8
0
10
355.134000
20
466.668000
11
345.533000
21
466.668000
0
LINE
8
0
10
33.599700
20
456.001000
11
36.799500
21
456.001000
0
LINE
8
0
10
206.399000
20
466.668000
11
206.399000
21
469.868000
0
LINE
8
0
10
345.533000
20
466.668000
11
345.533000
21
469.868000
0
LINE
8
0
10
366.400000
20
447.468000
11
366.400000
21
443.202000
0
LINE
8
0
10
36.799500
20
447.468000
11
36.799500
21
443.202000
0
LINE
8
0
10
36.799500
20
464.535000
11
36.799500
21
456.001000
0
LINE
8
0
10
33.599700
20
464.535000
11
36.799500
21
464.535000
0
LINE
8
0
10
246.377000
20
466.668000
11
246.377000
21
469.868000
0
LINE
8
0
10
366.400000
20
456.001000
11
369.598000
21
456.001000
0
LINE
8
0
10
206.399000
20
466.668000
11
196.799000
21
466.668000
0
LINE
8
0
10
57.666100
20
466.668000
11
48.066400
21
466.668000
0
LINE
8
0
10
57.666100
20
466.668000
11
57.666100
21
469.868000
0
LINE
8
0
10
57.666100
20
469.868000
11
48.066400
21
469.868000
0
LINE
8
0
10
305.556000
20
466.668000
11
295.955000
21
466.668000
0
LINE
8
0
10
305.556000
20
466.668000
11
305.556000
21
469.868000
0
LINE
8
0
10
33.599700
20
447.468000
11
36.799500
21
447.468000
0
LINE
8
0
10
305.556000
20
469.868000
11
295.955000
21
469.868000
0
LINE
8
0
10
156.822000
20
466.668000
11
147.222000
21
466.668000
0
LINE
8
0
10
156.822000
20
466.668000
11
156.822000
21
469.868000
0
LINE
8
0
10
156.822000
20
469.868000
11
147.222000
21
469.868000
0
LINE
8
0
10
147.222000
20
466.668000
11
147.222000
21
469.868000
0
LINE
8
0
10
107.244000
20
466.668000
11
107.244000
21
469.868000
0
LINE
8
0
10
107.244000
20
469.868000
11
97.644000
21
469.868000
0
LINE
8
0
10
97.644000
20
466.668000
11
97.644000
21
469.868000
0
LINE
8
0
10
355.134000
20
466.668000
11
355.134000
21
469.868000
0
LINE
8
0
10
355.134000
20
469.868000
11
345.533000
21
469.868000
0
LINE
8
0
10
366.400000
20
464.535000
11
369.598000
21
464.535000
0
LINE
8
0
10
107.244000
20
466.668000
11
97.644000
21
466.668000
0
LINE
8
0
10
295.955000
20
466.668000
11
295.955000
21
469.868000
0
LINE
8
0
10
255.977000
20
469.868000
11
246.377000
21
469.868000
0
LINE
8
0
10
366.400000
20
464.535000
11
366.400000
21
456.001000
0
LINE
8
0
10
255.977000
20
466.668000
11
255.977000
21
469.868000
0
LINE
8
0
10
255.977000
20
466.668000
11
246.377000
21
466.668000
0
LINE
8
0
10
131.885000
20
446.402000
11
128.685000
21
446.402000
0
LINE
8
0
10
128.685000
20
463.468000
11
128.685000
21
466.668000
0
LINE
8
0
10
131.885000
20
463.468000
11
128.685000
21
463.468000
0
LINE
8
0
10
131.885000
20
443.202000
11
131.885000
21
446.402000
0
LINE
8
0
10
128.685000
20
466.668000
11
131.885000
21
466.668000
0
LINE
8
0
10
131.885000
20
463.468000
11
131.885000
21
466.668000
0
LINE
8
0
10
84.342300
20
443.202000
11
128.685000
21
443.202000
0
LINE
8
0
10
128.685000
20
443.202000
11
128.685000
21
446.402000
0
LINE
8
0
10
179.428000
20
463.468000
11
179.428000
21
466.668000
0
LINE
8
0
10
176.228000
20
466.668000
11
179.428000
21
466.668000
0
LINE
8
0
10
176.228000
20
463.468000
11
176.228000
21
466.668000
0
LINE
8
0
10
179.428000
20
443.202000
11
179.428000
21
446.402000
0
LINE
8
0
10
179.428000
20
463.468000
11
176.228000
21
463.468000
0
LINE
8
0
10
179.428000
20
446.402000
11
176.228000
21
446.402000
0
LINE
8
0
10
176.228000
20
443.202000
11
176.228000
21
446.402000
0
LINE
8
0
10
131.885000
20
443.202000
11
176.228000
21
443.202000
0
LINE
8
0
10
322.058000
20
443.202000
11
366.400000
21
443.202000
0
LINE
8
0
10
322.058000
20
443.202000
11
322.058000
21
446.402000
0
LINE
8
0
10
322.058000
20
463.468000
11
318.857000
21
463.468000
0
LINE
8
0
10
318.857000
20
466.668000
11
322.058000
21
466.668000
0
LINE
8
0
10
322.058000
20
446.402000
11
318.857000
21
446.402000
0
LINE
8
0
10
318.857000
20
463.468000
11
318.857000
21
466.668000
0
LINE
8
0
10
318.857000
20
443.202000
11
318.857000
21
446.402000
0
LINE
8
0
10
322.058000
20
463.468000
11
322.058000
21
466.668000
0
LINE
8
0
10
223.771000
20
443.202000
11
223.771000
21
446.402000
0
LINE
8
0
10
179.428000
20
443.202000
11
223.771000
21
443.202000
0
LINE
8
0
10
226.971000
20
463.468000
11
223.771000
21
463.468000
0
LINE
8
0
10
226.971000
20
443.202000
11
226.971000
21
446.402000
0
LINE
8
0
10
226.971000
20
446.402000
11
223.771000
21
446.402000
0
LINE
8
0
10
223.771000
20
463.468000
11
223.771000
21
466.668000
0
LINE
8
0
10
223.771000
20
466.668000
11
226.971000
21
466.668000
0
LINE
8
0
10
226.971000
20
463.468000
11
226.971000
21
466.668000
0
LINE
8
0
10
274.514000
20
443.202000
11
318.857000
21
443.202000
0
LINE
8
0
10
226.971000
20
443.202000
11
271.314000
21
443.202000
0
LINE
8
0
10
271.314000
20
443.202000
11
271.314000
21
446.402000
0
LINE
8
0
10
274.514000
20
443.202000
11
274.514000
21
446.402000
0
LINE
8
0
10
274.514000
20
463.468000
11
274.514000
21
466.668000
0
LINE
8
0
10
274.514000
20
463.468000
11
271.314000
21
463.468000
0
LINE
8
0
10
274.514000
20
446.402000
11
271.314000
21
446.402000
0
LINE
8
0
10
271.314000
20
466.668000
11
274.514000
21
466.668000
0
LINE
8
0
10
271.314000
20
463.468000
11
271.314000
21
466.668000
0
LINE
8
0
10
49.090000
20
480.046000
11
49.090000
21
476.846000
0
LINE
8
0
10
49.090000
20
480.046000
11
41.623200
21
480.046000
0
LINE
8
0
10
41.623200
20
480.046000
11
41.623200
21
483.246000
0
LINE
8
0
10
41.623200
20
483.246000
11
44.823300
21
483.246000
0
LINE
8
0
10
44.823300
20
483.246000
11
44.823300
21
500.312000
0
LINE
8
0
10
44.823300
20
500.312000
11
41.623200
21
500.312000
0
LINE
8
0
10
41.623200
20
500.312000
11
41.623200
21
503.512000
0
LINE
8
0
10
89.166100
20
503.512000
11
41.623200
21
503.512000
0
LINE
8
0
10
89.166100
20
491.779000
11
89.166100
21
503.512000
0
LINE
8
0
10
92.366200
20
491.779000
11
89.166100
21
491.779000
0
LINE
8
0
10
92.366200
20
491.779000
11
92.366200
21
503.512000
0
LINE
8
0
10
136.709000
20
503.512000
11
92.366200
21
503.512000
0
LINE
8
0
10
136.709000
20
491.779000
11
136.709000
21
503.512000
0
LINE
8
0
10
139.909000
20
491.779000
11
136.709000
21
491.779000
0
LINE
8
0
10
139.909000
20
491.779000
11
139.909000
21
503.512000
0
LINE
8
0
10
184.252000
20
503.512000
11
139.909000
21
503.512000
0
LINE
8
0
10
184.252000
20
491.779000
11
184.252000
21
503.512000
0
LINE
8
0
10
187.452000
20
491.779000
11
184.252000
21
491.779000
0
LINE
8
0
10
187.452000
20
491.779000
11
187.452000
21
503.512000
0
LINE
8
0
10
231.795000
20
503.512000
11
187.452000
21
503.512000
0
LINE
8
0
10
231.795000
20
491.779000
11
231.795000
21
503.512000
0
LINE
8
0
10
234.995000
20
491.779000
11
231.795000
21
491.779000
0
LINE
8
0
10
234.995000
20
491.779000
11
234.995000
21
503.512000
0
LINE
8
0
10
279.337000
20
503.512000
11
234.995000
21
503.512000
0
LINE
8
0
10
279.337000
20
491.779000
11
279.337000
21
503.512000
0
LINE
8
0
10
326.881000
20
503.512000
11
282.538000
21
503.512000
0
LINE
8
0
10
326.881000
20
491.779000
11
326.881000
21
503.512000
0
LINE
8
0
10
330.081000
20
491.779000
11
326.881000
21
491.779000
0
LINE
8
0
10
330.081000
20
491.779000
11
330.081000
21
503.512000
0
LINE
8
0
10
377.624000
20
503.512000
11
330.081000
21
503.512000
0
LINE
8
0
10
377.624000
20
500.312000
11
377.624000
21
503.512000
0
LINE
8
0
10
374.424000
20
500.312000
11
377.624000
21
500.312000
0
LINE
8
0
10
374.424000
20
483.246000
11
374.424000
21
500.312000
0
LINE
8
0
10
377.624000
20
483.246000
11
374.424000
21
483.246000
0
LINE
8
0
10
377.624000
20
480.046000
11
377.624000
21
483.246000
0
LINE
8
0
10
377.624000
20
480.046000
11
370.157000
21
480.046000
0
LINE
8
0
10
370.157000
20
476.846000
11
370.157000
21
480.046000
0
LINE
8
0
10
49.090000
20
476.846000
11
370.157000
21
476.846000
0
LINE
8
0
10
282.538000
20
491.779000
11
279.337000
21
491.779000
0
LINE
8
0
10
282.538000
20
491.779000
11
282.538000
21
503.512000
0
LINE
8
0
10
47.470300
20
510.733000
11
47.470300
21
507.533000
0
LINE
8
0
10
47.470300
20
510.733000
11
40.003600
21
510.733000
0
LINE
8
0
10
40.003600
20
510.733000
11
40.003600
21
513.933000
0
LINE
8
0
10
40.003600
20
513.933000
11
43.203700
21
513.933000
0
LINE
8
0
10
43.203700
20
513.933000
11
43.203700
21
531.000000
0
LINE
8
0
10
43.203700
20
531.000000
11
40.003600
21
531.000000
0
LINE
8
0
10
40.003600
20
531.000000
11
40.003600
21
534.200000
0
LINE
8
0
10
87.546400
20
534.200000
11
40.003600
21
534.200000
0
LINE
8
0
10
87.546400
20
522.467000
11
87.546400
21
534.200000
0
LINE
8
0
10
90.746500
20
522.467000
11
87.546400
21
522.467000
0
LINE
8
0
10
90.746500
20
522.467000
11
90.746500
21
534.200000
0
LINE
8
0
10
135.089000
20
534.200000
11
90.746500
21
534.200000
0
LINE
8
0
10
135.089000
20
522.467000
11
135.089000
21
534.200000
0
LINE
8
0
10
138.289000
20
522.467000
11
135.089000
21
522.467000
0
LINE
8
0
10
138.289000
20
522.467000
11
138.289000
21
534.200000
0
LINE
8
0
10
182.632000
20
534.200000
11
138.289000
21
534.200000
0
LINE
8
0
10
182.632000
20
522.467000
11
182.632000
21
534.200000
0
LINE
8
0
10
185.832000
20
522.467000
11
182.632000
21
522.467000
0
LINE
8
0
10
185.832000
20
522.467000
11
185.832000
21
534.200000
0
LINE
8
0
10
230.175000
20
534.200000
11
185.832000
21
534.200000
0
LINE
8
0
10
230.175000
20
522.467000
11
230.175000
21
534.200000
0
LINE
8
0
10
233.375000
20
522.467000
11
230.175000
21
522.467000
0
LINE
8
0
10
233.375000
20
522.467000
11
233.375000
21
534.200000
0
LINE
8
0
10
277.718000
20
534.200000
11
233.375000
21
534.200000
0
LINE
8
0
10
277.718000
20
522.467000
11
277.718000
21
534.200000
0
LINE
8
0
10
325.261000
20
534.200000
11
280.918000
21
534.200000
0
LINE
8
0
10
325.261000
20
522.467000
11
325.261000
21
534.200000
0
LINE
8
0
10
328.461000
20
522.467000
11
325.261000
21
522.467000
0
LINE
8
0
10
328.461000
20
522.467000
11
328.461000
21
534.200000
0
LINE
8
0
10
376.004000
20
534.200000
11
328.461000
21
534.200000
0
LINE
8
0
10
376.004000
20
531.000000
11
376.004000
21
534.200000
0
LINE
8
0
10
372.804000
20
531.000000
11
376.004000
21
531.000000
0
LINE
8
0
10
372.804000
20
513.933000
11
372.804000
21
531.000000
0
LINE
8
0
10
376.004000
20
513.933000
11
372.804000
21
513.933000
0
LINE
8
0
10
376.004000
20
510.733000
11
376.004000
21
513.933000
0
LINE
8
0
10
376.004000
20
510.733000
11
368.537000
21
510.733000
0
LINE
8
0
10
368.537000
20
507.533000
11
368.537000
21
510.733000
0
LINE
8
0
10
47.470300
20
507.533000
11
368.537000
21
507.533000
0
LINE
8
0
10
280.918000
20
522.467000
11
277.718000
21
522.467000
0
LINE
8
0
10
280.918000
20
522.467000
11
280.918000
21
534.200000
0
LINE
8
0
10
133.274000
20
570.950000
11
133.274000
21
552.817000
0
LINE
8
0
10
133.274000
20
552.817000
11
136.474000
21
552.817000
0
LINE
8
0
10
136.474000
20
552.817000
11
136.474000
21
570.950000
0
LINE
8
0
10
175.941000
20
564.550000
11
175.941000
21
570.950000
0
LINE
8
0
10
183.407000
20
564.550000
11
175.941000
21
564.550000
0
LINE
8
0
10
180.207000
20
561.350000
11
183.407000
21
561.350000
0
LINE
8
0
10
180.207000
20
544.283000
11
180.207000
21
561.350000
0
LINE
8
0
10
183.407000
20
544.283000
11
180.207000
21
544.283000
0
LINE
8
0
10
39.407500
20
541.083000
11
183.407000
21
541.083000
0
LINE
8
0
10
39.407500
20
544.283000
11
39.407500
21
541.083000
0
LINE
8
0
10
39.407500
20
544.283000
11
42.607600
21
544.283000
0
LINE
8
0
10
42.607600
20
544.283000
11
42.607600
21
561.350000
0
LINE
8
0
10
42.607600
20
561.350000
11
39.407500
21
561.350000
0
LINE
8
0
10
39.407500
20
564.550000
11
39.407500
21
561.350000
0
LINE
8
0
10
46.874300
20
570.950000
11
46.874300
21
564.550000
0
LINE
8
0
10
86.340700
20
570.950000
11
46.874300
21
570.950000
0
LINE
8
0
10
86.340700
20
570.950000
11
86.340700
21
552.817000
0
LINE
8
0
10
86.340700
20
552.817000
11
89.540900
21
552.817000
0
LINE
8
0
10
89.540900
20
552.817000
11
89.540900
21
570.950000
0
LINE
8
0
10
183.407000
20
561.350000
11
183.407000
21
564.550000
0
LINE
8
0
10
183.407000
20
541.083000
11
183.407000
21
544.283000
0
LINE
8
0
10
46.874300
20
564.550000
11
39.407500
21
564.550000
0
LINE
8
0
10
175.941000
20
570.950000
11
136.474000
21
570.950000
0
LINE
8
0
10
133.274000
20
570.950000
11
89.540900
21
570.950000
0
LINE
8
0
10
286.738000
20
570.909000
11
286.738000
21
552.776000
0
LINE
8
0
10
286.738000
20
552.776000
11
289.938000
21
552.776000
0
LINE
8
0
10
289.938000
20
552.776000
11
289.938000
21
570.909000
0
LINE
8
0
10
329.407000
20
564.509000
11
329.407000
21
570.909000
0
LINE
8
0
10
336.871000
20
564.509000
11
329.407000
21
564.509000
0
LINE
8
0
10
333.671000
20
561.309000
11
336.871000
21
561.309000
0
LINE
8
0
10
333.671000
20
544.242000
11
333.671000
21
561.309000
0
LINE
8
0
10
336.871000
20
544.242000
11
333.671000
21
544.242000
0
LINE
8
0
10
192.872000
20
541.043000
11
336.871000
21
541.043000
0
LINE
8
0
10
192.872000
20
544.242000
11
192.872000
21
541.043000
0
LINE
8
0
10
192.872000
20
544.242000
11
196.072000
21
544.242000
0
LINE
8
0
10
196.072000
20
544.242000
11
196.072000
21
561.309000
0
LINE
8
0
10
196.072000
20
561.309000
11
192.872000
21
561.309000
0
LINE
8
0
10
192.872000
20
564.509000
11
192.872000
21
561.309000
0
LINE
8
0
10
200.339000
20
570.909000
11
200.339000
21
564.509000
0
LINE
8
0
10
239.805000
20
570.909000
11
200.339000
21
570.909000
0
LINE
8
0
10
239.805000
20
570.909000
11
239.805000
21
552.776000
0
LINE
8
0
10
239.805000
20
552.776000
11
243.006000
21
552.776000
0
LINE
8
0
10
243.006000
20
552.776000
11
243.006000
21
570.909000
0
LINE
8
0
10
336.871000
20
561.309000
11
336.871000
21
564.509000
0
LINE
8
0
10
336.871000
20
541.043000
11
336.871000
21
544.242000
0
LINE
8
0
10
200.339000
20
564.509000
11
192.872000
21
564.509000
0
LINE
8
0
10
329.407000
20
570.909000
11
289.938000
21
570.909000
0
LINE
8
0
10
286.738000
20
570.909000
11
243.006000
21
570.909000
0
LINE
8
0
10
132.603000
20
605.657000
11
132.603000
21
587.524000
0
LINE
8
0
10
132.603000
20
587.524000
11
135.803000
21
587.524000
0
LINE
8
0
10
135.803000
20
587.524000
11
135.803000
21
605.657000
0
LINE
8
0
10
175.270000
20
599.256000
11
175.270000
21
605.657000
0
LINE
8
0
10
182.737000
20
599.256000
11
175.270000
21
599.256000
0
LINE
8
0
10
179.537000
20
596.058000
11
182.737000
21
596.058000
0
LINE
8
0
10
179.537000
20
578.991000
11
179.537000
21
596.058000
0
LINE
8
0
10
182.737000
20
578.991000
11
179.537000
21
578.991000
0
LINE
8
0
10
38.736700
20
575.791000
11
182.737000
21
575.791000
0
LINE
8
0
10
38.736700
20
578.991000
11
38.736700
21
575.791000
0
LINE
8
0
10
38.736700
20
578.991000
11
41.936800
21
578.991000
0
LINE
8
0
10
41.936800
20
578.991000
11
41.936800
21
596.058000
0
LINE
8
0
10
41.936800
20
596.058000
11
38.736700
21
596.058000
0
LINE
8
0
10
38.736700
20
599.256000
11
38.736700
21
596.058000
0
LINE
8
0
10
46.203400
20
605.657000
11
46.203400
21
599.256000
0
LINE
8
0
10
85.670200
20
605.657000
11
46.203400
21
605.657000
0
LINE
8
0
10
85.670200
20
605.657000
11
85.670200
21
587.524000
0
LINE
8
0
10
85.670200
20
587.524000
11
88.870000
21
587.524000
0
LINE
8
0
10
88.870000
20
587.524000
11
88.870000
21
605.657000
0
LINE
8
0
10
182.737000
20
596.058000
11
182.737000
21
599.256000
0
LINE
8
0
10
182.737000
20
575.791000
11
182.737000
21
578.991000
0
LINE
8
0
10
46.203400
20
599.256000
11
38.736700
21
599.256000
0
LINE
8
0
10
175.270000
20
605.657000
11
135.803000
21
605.657000
0
LINE
8
0
10
132.603000
20
605.657000
11
88.870000
21
605.657000
0
LINE
8
0
10
290.945000
20
605.657000
11
290.945000
21
587.524000
0
LINE
8
0
10
290.945000
20
587.524000
11
294.146000
21
587.524000
0
LINE
8
0
10
294.146000
20
587.524000
11
294.146000
21
605.657000
0
LINE
8
0
10
333.612000
20
599.256000
11
333.612000
21
605.657000
0
LINE
8
0
10
341.077000
20
599.256000
11
333.612000
21
599.256000
0
LINE
8
0
10
337.879000
20
596.058000
11
341.077000
21
596.058000
0
LINE
8
0
10
337.879000
20
578.991000
11
337.879000
21
596.058000
0
LINE
8
0
10
341.077000
20
578.991000
11
337.879000
21
578.991000
0
LINE
8
0
10
197.078000
20
575.791000
11
341.077000
21
575.791000
0
LINE
8
0
10
197.078000
20
578.991000
11
197.078000
21
575.791000
0
LINE
8
0
10
197.078000
20
578.991000
11
200.278000
21
578.991000
0
LINE
8
0
10
200.278000
20
578.991000
11
200.278000
21
596.058000
0
LINE
8
0
10
200.278000
20
596.058000
11
197.078000
21
596.058000
0
LINE
8
0
10
197.078000
20
599.256000
11
197.078000
21
596.058000
0
LINE
8
0
10
204.545000
20
605.657000
11
204.545000
21
599.256000
0
LINE
8
0
10
244.011000
20
605.657000
11
204.545000
21
605.657000
0
LINE
8
0
10
244.011000
20
605.657000
11
244.011000
21
587.524000
0
LINE
8
0
10
244.011000
20
587.524000
11
247.211000
21
587.524000
0
LINE
8
0
10
247.211000
20
587.524000
11
247.211000
21
605.657000
0
LINE
8
0
10
341.077000
20
596.058000
11
341.077000
21
599.256000
0
LINE
8
0
10
341.077000
20
575.791000
11
341.077000
21
578.991000
0
LINE
8
0
10
204.545000
20
599.256000
11
197.078000
21
599.256000
0
LINE
8
0
10
333.612000
20
605.657000
11
294.146000
21
605.657000
0
LINE
8
0
10
290.945000
20
605.657000
11
247.211000
21
605.657000
0
LINE
8
0
10
133.193000
20
641.584000
11
133.193000
21
623.451000
0
LINE
8
0
10
133.193000
20
623.451000
11
136.393000
21
623.451000
0
LINE
8
0
10
136.393000
20
623.451000
11
136.393000
21
641.584000
0
LINE
8
0
10
175.859000
20
635.183000
11
175.859000
21
641.584000
0
LINE
8
0
10
183.326000
20
635.183000
11
175.859000
21
635.183000
0
LINE
8
0
10
180.126000
20
631.986000
11
183.326000
21
631.986000
0
LINE
8
0
10
180.126000
20
614.917000
11
180.126000
21
631.986000
0
LINE
8
0
10
183.326000
20
614.917000
11
180.126000
21
614.917000
0
LINE
8
0
10
39.325900
20
611.716000
11
183.326000
21
611.716000
0
LINE
8
0
10
39.325900
20
614.917000
11
39.325900
21
611.716000
0
LINE
8
0
10
39.325900
20
614.917000
11
42.526100
21
614.917000
0
LINE
8
0
10
42.526100
20
614.917000
11
42.526100
21
631.986000
0
LINE
8
0
10
42.526100
20
631.986000
11
39.325900
21
631.986000
0
LINE
8
0
10
39.325900
20
635.183000
11
39.325900
21
631.986000
0
LINE
8
0
10
46.792700
20
641.584000
11
46.792700
21
635.183000
0
LINE
8
0
10
86.259200
20
641.584000
11
46.792700
21
641.584000
0
LINE
8
0
10
86.259200
20
641.584000
11
86.259200
21
623.451000
0
LINE
8
0
10
86.259200
20
623.451000
11
89.459300
21
623.451000
0
LINE
8
0
10
89.459300
20
623.451000
11
89.459300
21
641.584000
0
LINE
8
0
10
183.326000
20
631.986000
11
183.326000
21
635.183000
0
LINE
8
0
10
183.326000
20
611.716000
11
183.326000
21
614.917000
0
LINE
8
0
10
46.792700
20
635.183000
11
39.325900
21
635.183000
0
LINE
8
0
10
175.859000
20
641.584000
11
136.393000
21
641.584000
0
LINE
8
0
10
133.193000
20
641.584000
11
89.459300
21
641.584000
0
LINE
8
0
10
290.164000
20
643.077000
11
290.164000
21
624.944000
0
LINE
8
0
10
290.164000
20
624.944000
11
293.364000
21
624.944000
0
LINE
8
0
10
293.364000
20
624.944000
11
293.364000
21
643.077000
0
LINE
8
0
10
332.830000
20
636.679000
11
332.830000
21
643.077000
0
LINE
8
0
10
340.295000
20
636.679000
11
332.830000
21
636.679000
0
LINE
8
0
10
337.097000
20
633.478000
11
340.295000
21
633.478000
0
LINE
8
0
10
337.097000
20
616.410000
11
337.097000
21
633.478000
0
LINE
8
0
10
340.295000
20
616.410000
11
337.097000
21
616.410000
0
LINE
8
0
10
196.296000
20
613.212000
11
340.295000
21
613.212000
0
LINE
8
0
10
196.296000
20
616.410000
11
196.296000
21
613.212000
0
LINE
8
0
10
196.296000
20
616.410000
11
199.496000
21
616.410000
0
LINE
8
0
10
199.496000
20
616.410000
11
199.496000
21
633.478000
0
LINE
8
0
10
199.496000
20
633.478000
11
196.296000
21
633.478000
0
LINE
8
0
10
196.296000
20
636.679000
11
196.296000
21
633.478000
0
LINE
8
0
10
203.763000
20
643.077000
11
203.763000
21
636.679000
0
LINE
8
0
10
243.230000
20
643.077000
11
203.763000
21
643.077000
0
LINE
8
0
10
243.230000
20
643.077000
11
243.230000
21
624.944000
0
LINE
8
0
10
243.230000
20
624.944000
11
246.429000
21
624.944000
0
LINE
8
0
10
246.429000
20
624.944000
11
246.429000
21
643.077000
0
LINE
8
0
10
340.295000
20
633.478000
11
340.295000
21
636.679000
0
LINE
8
0
10
340.295000
20
613.212000
11
340.295000
21
616.410000
0
LINE
8
0
10
203.763000
20
636.679000
11
196.296000
21
636.679000
0
LINE
8
0
10
332.830000
20
643.077000
11
293.364000
21
643.077000
0
LINE
8
0
10
290.164000
20
643.077000
11
246.429000
21
643.077000
0
LINE
8
0
10
85.275400
20
651.656000
11
82.075200
21
651.656000
0
LINE
8
0
10
85.275400
20
654.854000
11
85.275400
21
651.656000
0
LINE
8
0
10
129.618000
20
654.854000
11
129.618000
21
651.656000
0
LINE
8
0
10
132.818000
20
651.656000
11
129.618000
21
651.656000
0
LINE
8
0
10
132.818000
20
654.854000
11
132.818000
21
651.656000
0
LINE
8
0
10
177.161000
20
654.854000
11
177.161000
21
651.656000
0
LINE
8
0
10
180.361000
20
651.656000
11
177.161000
21
651.656000
0
LINE
8
0
10
180.361000
20
654.854000
11
180.361000
21
651.656000
0
LINE
8
0
10
224.704000
20
654.854000
11
224.704000
21
651.656000
0
LINE
8
0
10
227.904000
20
651.656000
11
224.704000
21
651.656000
0
LINE
8
0
10
227.904000
20
654.854000
11
227.904000
21
651.656000
0
LINE
8
0
10
272.247000
20
654.854000
11
272.247000
21
651.656000
0
LINE
8
0
10
275.446000
20
651.656000
11
272.247000
21
651.656000
0
LINE
8
0
10
275.446000
20
654.854000
11
275.446000
21
651.656000
0
LINE
8
0
10
319.789000
20
654.854000
11
319.789000
21
651.656000
0
LINE
8
0
10
322.989000
20
651.656000
11
319.789000
21
651.656000
0
LINE
8
0
10
322.989000
20
654.854000
11
322.989000
21
651.656000
0
LINE
8
0
10
82.075200
20
654.854000
11
82.075200
21
651.656000
0
LINE
8
0
10
37.732500
20
645.256000
11
367.332000
21
645.256000
0
LINE
8
0
10
37.732500
20
654.854000
11
37.732500
21
645.256000
0
LINE
8
0
10
82.075200
20
654.854000
11
37.732500
21
654.854000
0
LINE
8
0
10
367.332000
20
645.256000
11
367.332000
21
654.854000
0
LINE
8
0
10
367.332000
20
654.854000
11
322.989000
21
654.854000
0
LINE
8
0
10
319.789000
20
654.854000
11
275.446000
21
654.854000
0
LINE
8
0
10
272.247000
20
654.854000
11
227.904000
21
654.854000
0
LINE
8
0
10
224.704000
20
654.854000
11
180.361000
21
654.854000
0
LINE
8
0
10
177.161000
20
654.854000
11
132.818000
21
654.854000
0
LINE
8
0
10
129.618000
20
654.854000
11
85.275400
21
654.854000
0
LINE
8
0
10
81.567500
20
666.239000
11
78.367700
21
666.239000
0
LINE
8
0
10
81.567500
20
669.436000
11
81.567500
21
666.239000
0
LINE
8
0
10
125.911000
20
669.436000
11
125.911000
21
666.239000
0
LINE
8
0
10
129.110000
20
666.239000
11
125.911000
21
666.239000
0
LINE
8
0
10
129.110000
20
669.436000
11
129.110000
21
666.239000
0
LINE
8
0
10
173.453000
20
669.436000
11
173.453000
21
666.239000
0
LINE
8
0
10
176.653000
20
666.239000
11
173.453000
21
666.239000
0
LINE
8
0
10
176.653000
20
669.436000
11
176.653000
21
666.239000
0
LINE
8
0
10
220.996000
20
669.436000
11
220.996000
21
666.239000
0
LINE
8
0
10
224.196000
20
666.239000
11
220.996000
21
666.239000
0
LINE
8
0
10
224.196000
20
669.436000
11
224.196000
21
666.239000
0
LINE
8
0
10
268.539000
20
669.436000
11
268.539000
21
666.239000
0
LINE
8
0
10
271.739000
20
666.239000
11
268.539000
21
666.239000
0
LINE
8
0
10
271.739000
20
669.436000
11
271.739000
21
666.239000
0
LINE
8
0
10
316.083000
20
669.436000
11
316.083000
21
666.239000
0
LINE
8
0
10
319.281000
20
666.239000
11
316.083000
21
666.239000
0
LINE
8
0
10
319.281000
20
669.436000
11
319.281000
21
666.239000
0
LINE
8
0
10
78.367700
20
669.436000
11
78.367700
21
666.239000
0
LINE
8
0
10
34.024700
20
659.838000
11
363.623000
21
659.838000
0
LINE
8
0
10
34.024700
20
669.436000
11
34.024700
21
659.838000
0
LINE
8
0
10
78.367700
20
669.436000
11
34.024700
21
669.436000
0
LINE
8
0
10
363.623000
20
659.838000
11
363.623000
21
669.436000
0
LINE
8
0
10
363.623000
20
669.436000
11
319.281000
21
669.436000
0
LINE
8
0
10
316.083000
20
669.436000
11
271.739000
21
669.436000
0
LINE
8
0
10
268.539000
20
669.436000
11
224.196000
21
669.436000
0
LINE
8
0
10
220.996000
20
669.436000
11
176.653000
21
669.436000
0
LINE
8
0
10
173.453000
20
669.436000
11
129.110000
21
669.436000
0
LINE
8
0
10
125.911000
20
669.436000
11
81.567500
21
669.436000
 0 
ENDSEC
 0 
EOF