<?xml version="1.0" encoding="UTF-8" standalone="no"?>
<svg
   xmlns:dc="http://purl.org/dc/elements/1.1/"
   xmlns:cc="http://creativecommons.org/ns#"
   xmlns:rdf="http://www.w3.org/1999/02/22-rdf-syntax-ns#"
   xmlns:svg="http://www.w3.org/2000/svg"
   xmlns="http://www.w3.org/2000/svg"
   xmlns:sodipodi="http://sodipodi.sourceforge.net/DTD/sodipodi-0.dtd"
   xmlns:inkscape="http://www.inkscape.org/namespaces/inkscape"
   version="1.1"
   id="svg494"
   width="512"
   height="512"
   viewBox="0 0 512 512"
   sodipodi:docname="Logo.svg"
   inkscape:version="1.0.1 (3bc2e813f5, 2020-09-07)">
  <metadata
     id="metadata500">
    <rdf:RDF>
      <cc:Work
         rdf:about="">
        <dc:format>image/svg+xml</dc:format>
        <dc:type
           rdf:resource="http://purl.org/dc/dcmitype/StillImage" />
        <dc:title />
      </cc:Work>
    </rdf:RDF>
  </metadata>
  <defs
     id="defs498" />
  <sodipodi:namedview
     pagecolor="#ffffff"
     bordercolor="#666666"
     borderopacity="1"
     objecttolerance="10"
     gridtolerance="10"
     guidetolerance="10"
     inkscape:pageopacity="0"
     inkscape:pageshadow="2"
     inkscape:window-width="1920"
     inkscape:window-height="1017"
     id="namedview496"
     showgrid="false"
     inkscape:zoom="0.90509668"
     inkscape:cx="561.60477"
     inkscape:cy="-301.85124"
     inkscape:window-x="-8"
     inkscape:window-y="-8"
     inkscape:window-maximized="1"
     inkscape:current-layer="g502"
     inkscape:document-rotation="0" />
  <g
     inkscape:groupmode="layer"
     id="layer2"
     inkscape:label="Box">
    <path
       id="rect623"
       style="fill:none;fill-opacity:1;stroke:#000000;stroke-width:24.93400002;stroke-linecap:square;stroke-linejoin:miter;stroke-miterlimit:4;stroke-dasharray:24.93400002,74.80200005;paint-order:markers stroke fill;stroke-dashoffset:12.46700001"
       d="M 158.14732,-627.99886 H 1486.8101 v 369.90449 H 158.14732 Z"
       sodipodi:nodetypes="ccccc" />
    <path
       id="rect623-2"
       style="fill:none;fill-opacity:1;stroke:#000000;stroke-width:27.0212;stroke-linecap:square;stroke-linejoin:miter;stroke-miterlimit:4;stroke-dasharray:none;stroke-dashoffset:0;paint-order:markers stroke fill"
       d="M 134.57989,-652.58321 H 1512.7166 v 418.83295 H 134.57989 Z"
       sodipodi:nodetypes="ccccc" />
    <path
       id="rect623-2-8"
       style="fill:#ffffff;fill-opacity:1;stroke:#000000;stroke-width:7.59797;stroke-linecap:square;stroke-linejoin:miter;stroke-miterlimit:4;stroke-dasharray:none;stroke-dashoffset:0;paint-order:markers stroke fill"
       d="M 173.99231,-611.73764 H 1474.7882 V -274.186 H 173.99231 Z"
       sodipodi:nodetypes="ccccc" />
    <path
       style="fill:#000000;stroke-width:0.33464"
       d="m 420.24611,-304.56878 c -0.6034,-1.73221 -5.85686,-6.8341 -11.01713,-10.69924 -10.85126,-8.12786 -18.58964,-12.40602 -51.51113,-28.4779 -10.95026,-5.34581 -29.72306,-14.51354 -41.71732,-20.37273 -11.99428,-5.8591 -22.38984,-10.76907 -23.10125,-10.91126 -1.78977,-0.35706 -3.31998,-1.90106 -3.24125,-3.26982 0.10874,-1.88869 2.18211,-3.0906 4.72782,-2.7406 1.7653,0.24258 3.9856,-0.46955 4.74396,-1.52166 1.27313,-1.76618 0.47957,-5.64287 -1.44751,-7.07192 -1.74002,-1.29 -3.0429,-1.53168 -5.17049,-0.95878 -2.31678,0.62364 -4.10532,2.18732 -6.51647,5.69776 -1.90413,2.77225 -2.47115,3.38584 -3.44113,3.72366 -0.76698,0.26713 -2.0751,-0.25891 -3.12383,-1.25682 -0.31756,-0.30226 -1.00143,-0.4915 -1.51966,-0.42068 -1.67278,0.22872 -5.65302,-0.99796 -8.13983,-2.50859 -1.33236,-0.80947 -4.20306,-2.97133 -6.37934,-4.80404 -6.00599,-5.05772 -8.64288,-6.20722 -19.0113,-8.28852 -6.14453,-1.2332 -5.90563,-1.10192 -10.6673,-5.85595 -4.43299,-4.42605 -7.4422,-5.44267 -11.72028,-3.95884 -1.88521,0.65319 -2.63013,0.72464 -4.91523,0.46845 -3.1645,-0.355 -4.24724,-0.0654 -4.99117,1.33558 -1.30913,2.46517 -1.04239,3.53025 1.56154,6.23781 0.91732,0.95359 1.62326,2.15322 2.50961,4.26381 1.02057,2.43148 1.46686,3.13575 2.59219,4.09125 1.78396,1.51537 3.07238,1.90229 8.83638,2.6536 2.64856,0.34546 5.13422,0.81396 5.52407,1.04115 0.38987,0.22731 1.83746,1.45519 3.21732,2.72888 6.89497,6.3644 11.8116,9.18094 18.23134,10.44434 5.92077,1.16518 9.16346,2.04885 10.69078,2.91333 1.71804,0.97247 3.92156,3.09553 4.27961,4.12336 0.21543,0.61846 0.84402,0.97282 2.75603,1.55376 2.41826,0.73472 3.54082,1.26356 3.70937,1.7474 0.0458,0.13176 -0.27446,0.7811 -0.71185,1.44296 -0.76053,1.15071 -0.84469,1.19635 -1.92277,1.04219 -1.40566,-0.20107 -4.26164,0.76696 -5.46734,1.85308 -1.98587,1.78897 -2.57663,4.74016 -1.28593,6.42403 0.9367,1.22206 3.51501,2.37865 5.20242,2.33367 2.53511,-0.0675 4.0228,-1.36309 7.39109,-6.4367 3.22095,-4.85169 -2.21484,-6.77341 43.7268,15.45859 60.02746,29.04839 63.4172,30.5968 75.56093,34.51559 11.06457,3.57058 22.4262,5.37715 21.75826,3.45975 z m -116.1783,-57.07436 -6.25758,-3.22217 0.0987,-1.95748 c 0.0542,-1.07663 0.29843,-2.31869 0.54267,-2.76031 0.43482,-0.78604 0.46885,-0.78617 1.65262,-0.002 0.66473,0.44038 13.84879,6.98058 29.29789,14.53405 15.44907,7.55346 28.96352,14.33557 30.03205,15.07134 1.06858,0.73579 3.09658,1.97241 4.50673,2.74803 2.70365,1.48711 5.56336,3.9841 6.0007,5.23957 0.14322,0.41112 1.12011,1.60011 2.17087,2.64226 1.90337,1.8877 1.79205,1.83719 -29.93827,-13.5881 -17.5168,-8.5156 -34.66463,-16.93287 -38.10629,-18.7051 z m -35.21473,4.01346 c -1.01127,-0.15926 -1.05732,-0.57546 -0.16761,-1.51467 0.98581,-1.04065 3.58015,-1.9803 3.79161,-1.37327 0.20759,0.59598 -0.22642,1.23313 -1.4071,2.06427 -1.32996,0.93644 -1.38084,0.95536 -2.2169,0.82367 z m 4.45889,-11.68123 c -0.29596,-0.84961 3.61288,-9.54507 4.41663,-9.82498 0.61898,-0.21553 0.98556,2.07328 0.59422,3.71027 -0.48841,2.04306 -0.87098,2.76521 -2.38408,4.49992 -1.05163,1.20567 -2.46635,2.07536 -2.62677,1.61479 z m 9.08939,-4.2769 c 0.87629,-2.92274 3.42579,-7.09835 6.95602,-11.39241 2.53983,-3.08929 3.91233,-3.98052 5.42105,-3.52013 0.63401,0.19323 0.72566,0.37612 0.74385,1.48432 0.0301,1.83126 -0.30698,2.2275 -2.06809,2.4303 -2.89339,0.33382 -5.27898,2.60324 -7.88292,7.49951 -1.70939,3.21448 -2.37089,4.1653 -3.08295,4.43183 -0.28883,0.10818 -0.31498,-0.17275 -0.087,-0.93342 z m -13.09341,1.80728 c -0.4345,-0.53493 -1.85175,-1.5371 -3.14942,-2.22721 -2.41558,-1.2844 -4.46956,-1.87381 -10.80016,-3.09956 -4.37951,-0.84792 -6.72567,-1.77211 -9.78337,-3.8536 -2.24994,-1.53179 -10.7563,-8.56144 -13.4475,-11.11371 -1.2326,-1.16905 -1.39099,-1.22105 -2.33164,-0.76488 -0.55505,0.26879 -1.02582,0.44097 -1.04628,0.38192 -0.19179,-0.55029 0.53848,-3.22811 1.27098,-4.66001 2.07364,-4.05432 4.20634,-4.85404 5.78839,-2.1698 0.64824,1.09993 2.99616,1.94962 8.60477,3.11527 9.75708,2.02759 12.9442,3.39715 17.05551,7.32821 4.14216,3.96072 9.02559,6.93013 12.54655,7.62939 l 1.21352,0.24131 -2.39336,5.01894 c -1.31628,2.76035 -2.47092,5.04771 -2.56572,5.08276 -0.0944,0.0365 -0.52789,-0.37394 -0.96238,-0.90885 z m -47.38651,-20.55008 c -3.45819,-1.18967 -5.33209,-6.22455 -3.74235,-10.05565 0.5545,-1.33613 1.06523,-1.91803 2.63856,-3.00411 1.99166,-1.3752 3.28722,-1.77282 5.01659,-1.53946 1.55086,0.20934 3.30379,1.30376 3.92417,2.44954 0.51112,0.94483 0.50027,1.24842 -0.086,2.36263 -0.37001,0.70329 -1.08144,1.5302 -1.581,1.83745 -0.54893,0.33772 -1.22342,1.30854 -1.70472,2.45402 -2.50259,5.95946 -2.63684,6.1244 -4.46523,5.49558 z"
       id="path1525-2" />
  </g>
  <g
     inkscape:groupmode="layer"
     inkscape:label="Logo"
     id="g502">
    <path
       style="fill:#000000;stroke-width:0.371176"
       d="m 373.80741,-408.46338 c -3.07356,-0.78018 -4.41603,-1.87558 -7.27627,-5.93712 -3.34926,-4.75595 -8.58607,-10.00811 -11.9903,-12.02543 -1.42903,-0.84683 -4.04964,-1.95795 -5.82357,-2.46915 -6.12495,-1.76503 -11.24827,-2.11655 -35.74809,-2.45275 -12.45294,-0.17088 -23.56037,-0.40529 -24.68317,-0.52092 -1.12281,-0.11562 -4.63041,-0.38761 -7.79468,-0.60441 -11.69898,-0.80157 -22.93962,-2.50253 -25.58793,-3.87203 -1.33719,-0.69148 -1.4895,-1.10894 -0.29524,-0.8092 1.89717,0.47616 10.52956,1.36499 16.83445,1.73335 4.70744,0.27503 9.28213,0.27654 15.24199,0.005 9.18176,-0.41828 12.10048,-0.70423 19.68983,-1.92903 l 4.91168,-0.79267 2.14065,1.13324 c 3.27871,1.73572 5.73245,2.31854 9.72432,2.30975 2.75814,-0.006 4.09994,-0.20141 6.00607,-0.87428 8.02486,-2.83283 13.32048,-10.35301 13.32048,-18.91607 0,-7.23998 -4.45151,-14.08661 -11.29319,-17.36948 -2.94403,-1.41265 -3.54833,-1.56517 -6.82691,-1.72304 -4.41862,-0.21277 -7.02455,0.29313 -10.55788,2.04965 -3.38847,1.68451 -6.81113,5.06213 -8.29828,8.18908 -1.03546,2.1772 -1.12783,2.26021 -2.9251,2.62839 -5.66485,1.16049 -19.80692,2.05401 -27.2814,1.72369 -10.26567,-0.45367 -17.94431,-1.49334 -19.47589,-2.63699 -0.71751,-0.53577 -0.71917,-0.60624 -0.087,-3.6774 3.05734,-14.85306 11.29284,-26.999 22.02953,-32.4898 10.05073,-5.13999 23.75514,-6.85839 42.81677,-5.36881 22.9965,1.79709 36.24425,4.49478 45.00599,9.16473 8.56354,4.56431 13.20215,18.45463 14.75356,44.17943 0.49221,8.16137 0.83366,9.10108 7.27344,20.01752 3.39143,5.74897 4.60388,8.29402 4.60388,9.66392 0,2.92443 -4.79849,9.14869 -8.53704,11.07367 -2.02855,1.0445 -6.93816,1.34149 -9.8707,0.59711 z m -128.6803,-1.13507 c -1.1792,-0.25326 -2.59894,-0.79911 -3.15498,-1.21301 -0.86347,-0.64274 -1.02738,-1.06317 -1.12327,-2.88138 -0.19818,-3.75739 2.18762,-9.44173 6.49311,-15.47027 l 2.01948,-2.82768 1.97263,1.06843 c 4.69585,2.54338 18.16608,4.55221 37.25443,5.55579 l 8.65394,0.45499 -2.73816,1.76455 c -3.65605,2.35604 -12.23713,6.61241 -16.65093,8.25915 -11.88298,4.43341 -26.05024,6.72321 -32.72625,5.28943 z m 74.33764,-31.96462 c -6.0413,-1.66252 -10.01177,-7.286 -9.5639,-13.54557 0.34314,-4.79579 3.09923,-8.68853 7.70803,-10.88693 2.05839,-0.98187 2.82137,-1.14746 5.19645,-1.12783 3.92428,0.0324 6.62548,1.14272 9.30908,3.82631 4.86831,4.86832 5.08067,12.70302 0.48293,17.81682 -3.29379,3.66348 -8.45755,5.20373 -13.13259,3.9172 z m -50.10869,-0.43389 c -8.68857,-0.51251 -17.84469,-2.22313 -20.88584,-3.90208 -4.05676,-2.23963 -4.3468,-7.26253 -0.55293,-9.57567 1.55217,-0.94637 3.08694,-0.93544 5.28676,0.0376 7.05788,3.12205 28.32107,3.83473 47.70937,1.59909 l 2.04889,-0.23626 0.59245,3.13809 c 0.32583,1.72595 1.02879,4.00685 1.56212,5.06868 0.68734,1.36847 0.8369,1.97533 0.51365,2.08421 -0.80076,0.26972 -9.57029,1.27617 -14.52181,1.66662 -4.37232,0.34478 -16.7794,0.41305 -21.75266,0.11969 z m 55.86191,-67.31525 c -3.87878,-0.36281 -8.32894,-0.67397 -9.88923,-0.69147 -2.93098,-0.0329 -3.28177,-0.22743 -3.29113,-1.82526 -0.006,-1.02424 -1.67658,-4.29064 -2.91695,-5.70334 -1.7851,-2.03312 -1.57957,-2.86477 1.29836,-5.25357 6.0944,-5.05861 10.66063,-13.98698 12.95919,-25.33921 0.50151,-2.47682 0.91182,-5.02517 0.91182,-5.663 0,-1.31072 1.10981,-2.64438 2.20054,-2.64438 1.52712,0 1.75285,0.78204 1.99933,6.92661 0.54918,13.6906 3.91583,23.57942 10.13495,29.7693 1.75457,1.74632 1.63461,2.63255 -0.61082,4.51252 -1.33941,1.12142 -2.20283,2.28032 -3.0622,4.11014 -0.91871,1.95618 -1.36933,2.53825 -1.93917,2.50484 -0.4083,-0.0239 -3.9159,-0.34036 -7.79469,-0.70318 z"
       id="path506" />
    <text
       xml:space="preserve"
       style="font-style:italic;font-weight:bold;font-size:89.4288px;line-height:1.25;font-family:'Times New Roman';-inkscape-font-specification:'Times New Roman, Bold Italic';stroke-width:3.7262"
       x="452.54297"
       y="-386.20197"
       id="text595"><tspan
         sodipodi:role="line"
         id="tspan593"
         x="452.54297"
         y="-386.20197"
         style="font-style:normal;font-variant:normal;font-weight:bold;font-stretch:normal;font-size:211.488px;font-family:'Times New Roman';-inkscape-font-specification:'Times New Roman, Bold';font-variant-ligatures:normal;font-variant-caps:normal;font-variant-numeric:normal;font-variant-east-asian:normal;stroke-width:3.7262">Diplomacy</tspan></text>
    <g
       id="g1546"
       transform="rotate(-9.8175889,-1032.1537,-244.71276)">
      <path
         style="fill:#000000;stroke-width:0.33464"
         d="m 209.96491,-91.673336 c 0.89867,-1.599069 6.9676,-5.697398 12.72725,-8.594644 12.11169,-6.09253 20.48191,-8.9429 55.71702,-18.9737 11.71981,-3.33644 31.81245,-9.05932 44.65028,-12.71751 12.83784,-3.6581 23.93494,-6.66306 24.66027,-6.6779 1.82467,-0.0367 3.6026,-1.28748 3.76585,-2.64875 0.22515,-1.87837 -1.60449,-3.42622 -4.17208,-3.52944 -1.78044,-0.0717 -3.84087,-1.16325 -4.40236,-2.33235 -0.94263,-1.96257 0.52043,-5.63925 2.66882,-6.70707 1.93979,-0.96384 3.26487,-0.97259 5.25852,-0.0344 2.17097,1.02141 3.65659,2.8753 5.4127,6.75511 1.38684,3.06394 1.8371,3.7677 2.73254,4.27086 0.70804,0.39787 2.08829,0.11011 3.29619,-0.68778 0.36577,-0.24169 1.07227,-0.3077 1.56996,-0.14683 1.60647,0.51938 5.74042,0.0119 8.45416,-1.03778 1.45397,-0.5625 4.66016,-2.18573 7.12487,-3.60709 6.80195,-3.92248 9.59991,-4.59026 20.17277,-4.81543 6.26564,-0.13322 6.00738,-0.046 11.53099,-3.88839 5.14237,-3.57734 8.28348,-4.04882 12.23388,-1.83566 1.74093,0.97459 2.46167,1.17595 4.75621,1.32568 3.1776,0.20714 4.19253,0.68265 4.67844,2.19265 0.85512,2.657 0.40521,3.65856 -2.63436,5.86591 -1.07074,0.77737 -1.97668,1.83413 -3.22044,3.75592 -1.43233,2.21407 -1.99553,2.82886 -3.27138,3.57153 -2.02269,1.17797 -3.35907,1.33224 -9.16536,1.05801 -2.66803,-0.12578 -5.19734,-0.10178 -5.62108,0.0533 -0.42377,0.15519 -2.06476,1.10931 -3.64714,2.12044 -7.9069,5.05244 -13.24228,6.96029 -19.78415,7.07483 -6.03341,0.10562 -9.38098,0.40516 -11.03654,0.98752 -1.8623,0.65513 -4.40489,2.35752 -4.93814,3.30635 -0.32085,0.57092 -1.00197,0.8092 -2.98635,1.04478 -2.50979,0.29792 -3.70787,0.62107 -3.95889,1.06772 -0.0683,0.12164 0.13279,0.8172 0.44695,1.54567 0.54627,1.26654 0.6211,1.32627 1.70948,1.36414 1.41911,0.0493 4.06031,1.50457 5.05617,2.78583 1.64025,2.11037 1.70272,5.11946 0.13597,6.55006 -1.13704,1.03825 -3.87859,1.72332 -5.53178,1.38224 -2.48372,-0.51235 -3.72033,-2.0494 -6.14372,-7.63636 -2.31738,-5.34258 3.37168,-6.27825 -45.7641,7.52654 -64.20092,18.037368 -67.81016,18.965416 -80.45384,20.687168 -11.5201,1.568774 -23.02236,1.348805 -22.02758,-0.421222 z m 124.40583,-35.750104 6.72676,-2.0713 0.24719,-1.94432 c 0.13597,-1.06938 0.11406,-2.33503 -0.0487,-2.81272 -0.28979,-0.85027 -0.32326,-0.85638 -1.62649,-0.29273 -0.73183,0.3166 -14.8607,4.43591 -31.39752,9.1543 -16.53678,4.71838 -31.03344,9.01772 -32.21473,9.55408 -1.18133,0.53637 -3.39522,1.397 -4.91981,1.9125 -2.92307,0.98839 -6.17739,2.94346 -6.82873,4.10243 -0.2133,0.37952 -1.38409,1.37815 -2.60177,2.21924 -2.20573,1.52349 -2.08726,1.49334 31.86152,-8.11046 18.74152,-5.30183 37.10252,-10.57177 40.80224,-11.71102 z m 33.95981,10.14476 c 1.02351,0.0211 1.14205,-0.38051 0.43141,-1.46157 -0.78741,-1.19782 -3.17602,-2.57914 -3.49096,-2.01876 -0.30918,0.55017 0.006,1.25373 1.02208,2.27958 1.14452,1.15576 1.19128,1.18334 2.03747,1.20075 z m -2.33478,-12.28339 c 0.44078,-0.7843 -1.87769,-10.03172 -2.61967,-10.44864 -0.57142,-0.32104 -1.33486,1.86761 -1.23755,3.54791 0.12144,2.09711 0.37103,2.8753 1.55542,4.8491 0.82317,1.37184 2.06287,2.47681 2.3018,2.05163 z m -8.19543,-5.80894 c -0.34855,-3.0313 -2.12386,-7.59024 -4.84378,-12.43829 -1.95686,-3.48785 -3.15121,-4.6066 -4.71738,-4.41875 -0.65812,0.0787 -0.78051,0.24262 -0.99333,1.33034 -0.35174,1.79742 -0.0896,2.24677 1.60838,2.75617 2.78957,0.83753 4.7388,3.49117 6.44095,8.76911 1.11735,3.46503 1.6013,4.51737 2.25538,4.90499 0.2653,0.1573 0.34045,-0.11465 0.24978,-0.90357 z m 12.5714,4.08209 c 0.52182,-0.45017 2.09324,-1.18744 3.49207,-1.63854 2.60383,-0.83951 4.72946,-1.05845 11.17696,-1.15161 4.46037,-0.0644 6.93251,-0.56152 10.30865,-2.07274 2.48429,-1.11217 12.09447,-6.53606 15.19263,-8.57519 1.41901,-0.93402 1.58408,-0.95735 2.42983,-0.34284 0.49912,0.36223 0.93226,0.61452 0.96279,0.55999 0.28559,-0.50797 0.0377,-3.27249 -0.43152,-4.81091 -1.3282,-4.35584 -3.28699,-5.51821 -5.31651,-3.15408 -0.8316,0.96876 -3.29236,1.39223 -9.01856,1.55322 -9.9616,0.27982 -13.33992,1.06745 -18.07857,4.21409 -4.77423,3.17041 -10.10381,5.23459 -13.69287,5.30365 l -1.23704,0.0241 1.47327,5.36166 c 0.81024,2.94884 1.54456,5.40363 1.63172,5.4548 0.0865,0.0525 0.58543,-0.27526 1.10723,-0.72541 z m 50.26229,-11.89495 c 3.61353,-0.56287 6.34379,-5.18966 5.45268,-9.24065 -0.31084,-1.41283 -0.71126,-2.07549 -2.06903,-3.42137 -1.71873,-1.70407 -2.92416,-2.32336 -4.66761,-2.39782 -1.5635,-0.0667 -3.4816,0.70234 -4.29384,1.72114 -0.66934,0.84019 -0.71205,1.14096 -0.33088,2.34092 0.24054,0.75741 0.79543,1.69656 1.23316,2.08689 0.48098,0.429 0.97419,1.50332 1.24651,2.7156 1.41538,6.30673 1.51852,6.49271 3.42901,6.19529 z"
         id="path1525" />
      <path
         style="fill:#ffffff;fill-opacity:1;stroke:none;stroke-width:6.88711;stroke-linecap:square;stroke-linejoin:miter;stroke-miterlimit:4;stroke-dasharray:6.88711, 20.6613;stroke-dashoffset:3.44355;paint-order:markers stroke fill"
         d="m 262.20253,-107.72664 c 0.45575,-0.33273 1.47265,-1.247 2.25977,-2.03171 1.93172,-1.9258 3.56521,-2.80759 9.07811,-4.90053 5.31141,-2.01646 11.54095,-3.90092 38.93299,-11.77742 10.63422,-3.05784 21.34989,-6.17385 23.8126,-6.92447 2.46271,-0.75061 4.53479,-1.36475 4.60463,-1.36475 0.3117,0 0.47505,1.80677 0.30604,3.38499 l -0.185,1.72748 -2.94438,0.90778 c -8.18872,2.52467 -67.31166,19.34526 -73.4289,20.89066 -3.3825,0.85452 -3.4912,0.85845 -2.43586,0.088 z"
         id="path1542" />
    </g>
  </g>
</svg>
